<?xml version="1.0" encoding="UTF-8"?>
<svg version="1.2" baseProfile="tiny" id="Layer_1" preserveAspectRatio="xMidYMid meet" xmlns="http://www.w3.org/2000/svg" xmlns:xlink="http://www.w3.org/1999/xlink"
	width="771" height="539" viewBox="0 0 771 539" overflow="visible" xml:space="preserve">
  <defs>
    <style>
      .cls-1 {
        stroke: #323232;
        stroke-width: 5.67px;
      }

      .cls-1, .cls-2 {
        fill: none;
        stroke-miterlimit: 10;
      }

      .cls-3 {
        letter-spacing: -.03em;
      }

      .cls-4 {
        fill: #fff;
        font-family: FranklinGothic-Medium, 'Franklin Gothic Medium';
        font-size: 18.4px;
        font-weight: 500;
        isolation: isolate;
      }

      .cls-5 {
        fill: #808285;
      }

      .cls-5, .cls-6, .cls-7, .cls-8 {
        stroke-width: 0px;
      }

      .cls-9 {
        letter-spacing: -.03em;
      }

      .cls-10 {
        letter-spacing: .01em;
      }

      .cls-11 {
        letter-spacing: -.06em;
      }

      .cls-12 {
        letter-spacing: -.02em;
      }

      .cls-13 {
        letter-spacing: 0em;
      }

      .cls-14 {
        letter-spacing: 0em;
      }

      .cls-15 {
        letter-spacing: -.02em;
      }

      .cls-16 {
        letter-spacing: -.03em;
      }

      .cls-6 {
        fill: #bcbec0;
      }

      .cls-17 {
        letter-spacing: 0em;
      }

      .cls-2 {
        stroke: #000;
        stroke-width: 5.67px;
      }

      .cls-18 {
        letter-spacing: -.01em;
      }

      .cls-19 {
        letter-spacing: 0em;
      }

      .cls-20 {
        letter-spacing: -.03em;
      }

      .cls-7 {
        fill: #535889;
      }

      .cls-8 {
        fill: #d16b6b;
      }
    </style>
  </defs>
  <g id="Background">
    <rect class="cls-6" x="2.83" y="3.07" width="150.2" height="535.8"/>
    <rect class="cls-6" x="564.09" y="2.84" width="203.25" height="476.17"/>
    <polygon class="cls-6" points="365.67 3.07 566.93 3.07 563.85 297.48 362.58 297.48 365.67 3.07"/>
    <rect class="cls-6" x="362.83" y="3.07" width="85" height="294.8"/>
    <rect class="cls-6" x="147.43" y="5.87" width="221.1" height="243.8"/>
  </g>
  <g id="Rooms">
    <rect class="cls-8" x="422.36" y="8.51" width="36.85" height="104.88"/>
    <rect class="cls-8" x="209.76" y="175.75" width="113.39" height="65.2"/>
    <rect class="cls-8" x="8.5" y="8.51" width="42.52" height="201.26"/>
    <rect class="cls-8" x="8.5" y="323.16" width="34.02" height="110.55"/>
    <rect class="cls-8" x="28.35" y="323.16" width="22.68" height="28.35"/>
    <rect class="cls-8" x="8.5" y="272.13" width="42.52" height="39.69"/>
    <rect class="cls-8" x="8.5" y="221.11" width="42.52" height="39.69"/>
    <rect class="cls-8" x="62.36" y="8.51" width="56.69" height="104.88"/>
    <rect class="cls-8" x="130.39" y="8.51" width="45.35" height="104.88"/>
    <rect class="cls-8" x="187.09" y="8.51" width="45.35" height="104.88"/>
    <rect class="cls-8" x="243.78" y="8.51" width="34.02" height="104.88"/>
    <rect class="cls-8" x="289.13" y="8.51" width="25.51" height="104.88"/>
    <rect class="cls-8" x="325.98" y="8.51" width="31.18" height="104.88"/>
    <rect class="cls-8" x="368.5" y="175.75" width="34.02" height="116.22"/>
    <rect class="cls-8" x="413.86" y="175.75" width="28.35" height="116.22"/>
    <rect class="cls-8" x="453.54" y="175.75" width="22.68" height="116.22"/>
    <rect class="cls-8" x="487.56" y="175.75" width="22.68" height="116.22"/>
    <rect class="cls-8" x="521.57" y="175.75" width="28.35" height="116.22"/>
    <rect class="cls-8" x="561.26" y="175.75" width="31.18" height="116.22"/>
    <rect class="cls-8" x="603.78" y="175.75" width="42.52" height="116.22"/>
    <rect class="cls-8" x="470.55" y="8.51" width="39.69" height="104.88"/>
    <rect class="cls-8" x="521.57" y="8.51" width="42.52" height="104.88"/>
    <rect class="cls-8" x="575.43" y="8.51" width="31.18" height="104.88"/>
    <rect class="cls-8" x="617.95" y="8.51" width="31.18" height="104.88"/>
    <rect class="cls-8" x="660.47" y="8.51" width="102.05" height="104.88"/>
    <rect class="cls-8" x="691.65" y="124.73" width="70.87" height="31.18"/>
    <rect class="cls-8" x="691.65" y="167.25" width="70.87" height="34.02"/>
    <rect class="cls-8" x="691.65" y="212.6" width="70.87" height="39.69"/>
    <rect class="cls-8" x="691.65" y="263.63" width="70.87" height="36.85"/>
    <rect class="cls-8" x="691.65" y="311.82" width="70.87" height="31.18"/>
    <rect class="cls-8" x="691.65" y="354.34" width="70.87" height="31.18"/>
    <rect class="cls-8" x="8.5" y="445.04" width="138.9" height="85.04"/>
    <rect class="cls-8" x="107.72" y="175.75" width="90.71" height="65.2"/>
    <rect class="cls-8" x="368.5" y="8.51" width="42.52" height="104.88"/>
  </g>
  <g id="Stairs">
    <rect class="cls-5" x="569.79" y="394.03" width="76.5" height="76.5"/>
    <rect class="cls-5" x="334.49" y="175.75" width="22.68" height="65.2"/>
    <rect class="cls-5" x="107.72" y="343" width="39.69" height="31.18"/>
    <rect class="cls-5" x="107.72" y="385.52" width="39.69" height="48.19"/>
  </g>
  <g id="Service">
    <rect class="cls-7" x="702.99" y="396.86" width="59.53" height="25.51"/>
    <rect class="cls-7" x="717.17" y="433.71" width="45.35" height="36.85"/>
    <rect class="cls-7" x="107.72" y="297.64" width="39.69" height="34.02"/>
    <rect class="cls-7" x="107.72" y="252.29" width="39.69" height="34.02"/>
    <rect class="cls-7" x="569.76" y="303.31" width="76.54" height="79.37"/>
  </g>
  <g id="Stroke">
    <line class="cls-2" x1="2.89" y1=".03" x2="2.89" y2="538.53"/>
    <line class="cls-2" x1="5.69" y1="2.83" x2="770.99" y2="2.83"/>
    <line class="cls-2" x1="5.69" y1="535.73" x2="155.89" y2="535.73"/>
    <line class="cls-2" x1="153.09" y1="532.93" x2="153.09" y2="243.73"/>
    <line class="cls-2" x1="768.19" y1="5.63" x2="768.19" y2="479.03"/>
    <line class="cls-2" x1="155.89" y1="246.63" x2="365.69" y2="246.63"/>
    <line class="cls-2" x1="362.89" y1="249.43" x2="362.89" y2="300.43"/>
    <line class="cls-2" x1="365.69" y1="297.63" x2="447.89" y2="297.63"/>
    <line class="cls-2" x1="564.09" y1="391.13" x2="564.09" y2="479.03"/>
    <line class="cls-2" x1="566.89" y1="476.23" x2="765.39" y2="476.23"/>
    <line class="cls-2" x1="765.39" y1="428.03" x2="694.49" y2="428.03"/>
    <line class="cls-2" x1="711.49" y1="430.83" x2="711.49" y2="459.23"/>
    <line class="cls-2" x1="697.29" y1="425.13" x2="697.29" y2="408.13"/>
    <line class="cls-2" x1="561.29" y1="388.33" x2="598.09" y2="388.33"/>
    <line class="cls-2" x1="598.09" y1="388.33" x2="654.79" y2="388.33"/>
    <line class="cls-2" x1="651.99" y1="385.53" x2="651.99" y2="459.23"/>
    <line class="cls-2" x1="447.87" y1="297.64" x2="654.8" y2="297.64"/>
    <line class="cls-2" x1="651.97" y1="300.48" x2="651.97" y2="385.52"/>
    <line class="cls-2" x1="765.35" y1="391.19" x2="683.15" y2="391.19"/>
    <line class="cls-2" x1="685.98" y1="388.35" x2="685.98" y2="119.06"/>
    <line class="cls-2" x1="362.83" y1="243.79" x2="362.83" y2="167.25"/>
    <line class="cls-2" x1="688.82" y1="119.06" x2="187.06" y2="119.06"/>
    <line class="cls-2" x1="564.09" y1="385.52" x2="564.09" y2="300.48"/>
    <line class="cls-2" x1="360" y1="170.08" x2="99.21" y2="170.08"/>
    <line class="cls-2" x1="102.05" y1="172.92" x2="102.05" y2="442.21"/>
    <line class="cls-2" x1="53.86" y1="119.06" x2="153" y2="119.09"/>
    <line class="cls-2" x1="153" y1="119.09" x2="266.4" y2="119.09"/>
    <line class="cls-2" x1="280.6" y1="119.09" x2="317.5" y2="119.09"/>
    <line class="cls-2" x1="331.6" y1="119.09" x2="360" y2="119.09"/>
    <line class="cls-2" x1="56.7" y1="121.89" x2="56.7" y2="345.83"/>
    <line class="cls-2" x1="48.19" y1="399.69" x2="48.19" y2="442.21"/>
    <line class="cls-2" x1="5.67" y1="439.38" x2="45.35" y2="439.38"/>
    <line class="cls-2" x1="104.88" y1="439.38" x2="150.24" y2="439.38"/>
    <line class="cls-2" x1="51.02" y1="439.38" x2="99.21" y2="439.38"/>
    <line class="cls-2" x1="765.35" y1="306.15" x2="688.82" y2="306.15"/>
    <line class="cls-2" x1="56.69" y1="345.83" x2="56.69" y2="354.34"/>
    <line class="cls-2" x1="48.19" y1="399.69" x2="48.19" y2="360.01"/>
    <line class="cls-2" x1="45.35" y1="357.17" x2="59.53" y2="357.17"/>
    <line class="cls-2" x1="99.21" y1="379.85" x2="153.11" y2="379.85"/>
    <line class="cls-2" x1="99.21" y1="337.35" x2="155.91" y2="337.35"/>
    <line class="cls-2" x1="99.21" y1="291.95" x2="155.91" y2="291.95"/>
    <line class="cls-2" x1="99.21" y1="246.65" x2="155.91" y2="246.65"/>
    <line class="cls-2" x1="204.09" y1="243.79" x2="204.09" y2="172.92"/>
    <line class="cls-2" x1="328.82" y1="172.92" x2="328.82" y2="243.79"/>
    <line class="cls-2" x1="365.67" y1="170.08" x2="654.8" y2="170.08"/>
    <line class="cls-2" x1="651.97" y1="294.81" x2="651.97" y2="172.92"/>
    <line class="cls-2" x1="53.86" y1="317.49" x2="5.67" y2="317.49"/>
    <line class="cls-2" x1="53.86" y1="266.46" x2="5.67" y2="266.46"/>
    <line class="cls-2" x1="53.86" y1="215.44" x2="5.67" y2="215.44"/>
    <line class="cls-2" x1="56.69" y1="116.23" x2="56.69" y2="5.67"/>
    <line class="cls-2" x1="124.72" y1="116.23" x2="124.72" y2="5.67"/>
    <line class="cls-2" x1="181.42" y1="116.23" x2="181.42" y2="5.67"/>
    <line class="cls-2" x1="238.11" y1="116.23" x2="238.11" y2="5.67"/>
    <line class="cls-2" x1="283.46" y1="116.23" x2="283.46" y2="5.67"/>
    <line class="cls-2" x1="362.83" y1="116.23" x2="362.83" y2="2.84"/>
    <line class="cls-2" x1="416.69" y1="116.23" x2="416.69" y2="2.84"/>
    <line class="cls-2" x1="464.88" y1="119.06" x2="464.88" y2="5.67"/>
    <line class="cls-2" x1="515.91" y1="116.23" x2="515.91" y2="5.67"/>
    <line class="cls-2" x1="569.76" y1="116.23" x2="569.76" y2="5.67"/>
    <line class="cls-2" x1="320.31" y1="5.67" x2="320.31" y2="116.23"/>
    <line class="cls-2" x1="612.28" y1="5.67" x2="612.28" y2="116.23"/>
    <line class="cls-2" x1="654.8" y1="116.23" x2="654.8" y2="5.67"/>
    <line class="cls-2" x1="688.82" y1="119.06" x2="768.19" y2="119.06"/>
    <line class="cls-2" x1="688.82" y1="348.67" x2="765.35" y2="348.67"/>
    <line class="cls-2" x1="688.82" y1="257.96" x2="765.35" y2="257.96"/>
    <line class="cls-2" x1="688.82" y1="206.93" x2="768.19" y2="206.93"/>
    <line class="cls-2" x1="688.82" y1="161.58" x2="768.19" y2="161.58"/>
    <line class="cls-2" x1="408.19" y1="172.92" x2="408.19" y2="297.64"/>
    <line class="cls-2" x1="447.87" y1="172.92" x2="447.87" y2="294.81"/>
    <line class="cls-2" x1="481.89" y1="172.92" x2="481.89" y2="297.64"/>
    <line class="cls-2" x1="515.91" y1="172.92" x2="515.91" y2="294.81"/>
    <line class="cls-2" x1="555.59" y1="172.92" x2="555.59" y2="294.81"/>
    <line class="cls-2" x1="598.11" y1="172.92" x2="598.11" y2="294.81"/>
  </g>
  <g id="RoomNumbers">
    <g id="RoomNumbers-2" data-name="RoomNumbers">
      <text class="cls-4" transform="translate(592.44 345.83) scale(.9 1)"><tspan x="0" y="0">530</tspan></text>
    </g>
    <g id="RoomNumbers-3" data-name="RoomNumbers">
      <text class="cls-4" transform="translate(252.28 215.44) scale(.9 1)"><tspan x="0" y="0">5</tspan><tspan class="cls-15" x="10.79" y="0">2</tspan><tspan class="cls-17" x="21.15" y="0">1</tspan></text>
    </g>
    <g id="RoomNumbers-4" data-name="RoomNumbers">
      <text class="cls-4" transform="translate(289.13 70.87) scale(.9 1)"><tspan class="cls-12" x="0" y="0">5</tspan><tspan x="10.33" y="0">15</tspan></text>
    </g>
    <g id="RoomNumbers-5" data-name="RoomNumbers">
      <text class="cls-4" transform="translate(246.61 70.87) scale(.9 1)"><tspan class="cls-12" x="0" y="0">5</tspan><tspan class="cls-18" x="10.33" y="0">1</tspan><tspan x="20.86" y="0">6</tspan></text>
    </g>
    <g id="RoomNumbers-6" data-name="RoomNumbers">
      <text class="cls-4" transform="translate(138.9 70.87) scale(.9 1)"><tspan class="cls-12" x="0" y="0">5</tspan><tspan class="cls-10" x="10.33" y="0">1</tspan><tspan x="21.34" y="0">8</tspan></text>
    </g>
    <g id="RoomNumbers-7" data-name="RoomNumbers">
      <text class="cls-4" transform="translate(73.7 70.87) scale(.9 1)"><tspan class="cls-12" x="0" y="0">5</tspan><tspan x="10.33" y="0">19</tspan></text>
    </g>
    <g id="RoomNumbers-8" data-name="RoomNumbers">
      <text class="cls-4" transform="translate(14.17 147.41) scale(.9 1)"><tspan x="0" y="0">535</tspan></text>
    </g>
    <g id="RoomNumbers-9" data-name="RoomNumbers">
      <text class="cls-4" transform="translate(17.01 297.64) scale(.9 1)"><tspan x="0" y="0">533</tspan></text>
    </g>
    <g id="RoomNumbers-10" data-name="RoomNumbers">
      <text class="cls-4" transform="translate(11.34 385.52) scale(.9 1)"><tspan x="0" y="0">532</tspan></text>
    </g>
    <g id="RoomNumbers-11" data-name="RoomNumbers">
      <text class="cls-4" transform="translate(62.36 496.07) scale(.9 1)"><tspan x="0" y="0">5</tspan><tspan class="cls-20" x="10.79" y="0">3</tspan><tspan x="21.05" y="0">1</tspan></text>
    </g>
    <g id="RoomNumbers-12" data-name="RoomNumbers">
      <text class="cls-4" transform="translate(374.17 70.87) scale(.9 1)"><tspan class="cls-12" x="0" y="0">5</tspan><tspan class="cls-19" x="10.33" y="0">1</tspan><tspan x="21.23" y="0">3</tspan></text>
    </g>
    <g id="RoomNumbers-13" data-name="RoomNumbers">
      <text class="cls-4" transform="translate(192.76 70.87) scale(.9 1)"><tspan class="cls-12" x="0" y="0">5</tspan><tspan class="cls-11" x="10.33" y="0">1</tspan><tspan x="20.03" y="0">7</tspan></text>
    </g>
    <g id="RoomNumbers-14" data-name="RoomNumbers">
      <text class="cls-4" transform="translate(328.82 70.87) scale(.9 1)"><tspan class="cls-12" x="0" y="0">5</tspan><tspan class="cls-14" x="10.33" y="0">1</tspan><tspan x="21.03" y="0">4</tspan></text>
    </g>
    <g id="RoomNumbers-15" data-name="RoomNumbers">
      <text class="cls-4" transform="translate(425.2 70.87) scale(.9 1)"><tspan class="cls-12" x="0" y="0">5</tspan><tspan class="cls-10" x="10.33" y="0">1</tspan><tspan x="21.34" y="0">2</tspan></text>
    </g>
    <g id="RoomNumbers-16" data-name="RoomNumbers">
      <text class="cls-4" transform="translate(476.22 70.87) scale(.9 1)"><tspan class="cls-12" x="0" y="0">5</tspan><tspan x="10.33" y="0">11</tspan></text>
    </g>
    <g id="RoomNumbers-17" data-name="RoomNumbers">
      <text class="cls-4" transform="translate(527.24 70.87) scale(.9 1)"><tspan class="cls-12" x="0" y="0">5</tspan><tspan class="cls-13" x="10.33" y="0">1</tspan><tspan x="20.94" y="0">0</tspan></text>
    </g>
    <g id="RoomNumbers-18" data-name="RoomNumbers">
      <text class="cls-4" transform="translate(578.27 70.87) scale(.9 1)"><tspan x="0" y="0">509</tspan></text>
    </g>
    <g id="RoomNumbers-19" data-name="RoomNumbers">
      <text class="cls-4" transform="translate(620.79 70.87) scale(.9 1)"><tspan x="0" y="0">508</tspan></text>
    </g>
    <g id="RoomNumbers-20" data-name="RoomNumbers">
      <text class="cls-4" transform="translate(697.32 70.87) scale(.9 1)"><tspan x="0" y="0">5</tspan><tspan class="cls-16" x="10.79" y="0">0</tspan><tspan class="cls-17" x="20.98" y="0">7</tspan></text>
    </g>
    <g id="RoomNumbers-21" data-name="RoomNumbers">
      <text class="cls-4" transform="translate(708.66 147.41) scale(.9 1)"><tspan x="0" y="0">506</tspan></text>
    </g>
    <g id="RoomNumbers-22" data-name="RoomNumbers">
      <text class="cls-4" transform="translate(708.66 192.76) scale(.9 1)"><tspan x="0" y="0">505</tspan></text>
    </g>
    <g id="RoomNumbers-23" data-name="RoomNumbers">
      <text class="cls-4" transform="translate(708.66 238.12) scale(.9 1)"><tspan x="0" y="0">504</tspan></text>
    </g>
    <g id="RoomNumbers-24" data-name="RoomNumbers">
      <text class="cls-4" transform="translate(708.66 289.14) scale(.9 1)"><tspan x="0" y="0">503</tspan></text>
    </g>
    <g id="RoomNumbers-25" data-name="RoomNumbers">
      <text class="cls-4" transform="translate(708.66 331.66) scale(.9 1)"><tspan x="0" y="0">502</tspan></text>
    </g>
    <g id="RoomNumbers-26" data-name="RoomNumbers">
      <text class="cls-4" transform="translate(708.66 374.18) scale(.9 1)"><tspan x="0" y="0">5</tspan><tspan class="cls-12" x="10.79" y="0">0</tspan><tspan x="21.12" y="0">1</tspan></text>
    </g>
    <g id="RoomNumbers-27" data-name="RoomNumbers">
      <text class="cls-4" transform="translate(609.45 238.12) scale(.9 1)"><tspan x="0" y="0">528</tspan></text>
    </g>
    <g id="RoomNumbers-28" data-name="RoomNumbers">
      <text class="cls-4" transform="translate(561.26 238.12) scale(.9 1)"><tspan x="0" y="0">5</tspan><tspan class="cls-3" x="10.79" y="0">2</tspan><tspan class="cls-17" x="21.08" y="0">7</tspan></text>
    </g>
    <g id="RoomNumbers-29" data-name="RoomNumbers">
      <text class="cls-4" transform="translate(521.57 238.12) scale(.9 1)"><tspan x="0" y="0">526</tspan></text>
    </g>
    <g id="RoomNumbers-30" data-name="RoomNumbers">
      <text class="cls-4" transform="translate(484.72 238.12) scale(.9 1)"><tspan x="0" y="0">525</tspan></text>
    </g>
    <g id="RoomNumbers-31" data-name="RoomNumbers">
      <text class="cls-4" transform="translate(450.71 238.12) scale(.9 1)"><tspan x="0" y="0">5</tspan><tspan class="cls-9" x="10.79" y="0">2</tspan><tspan x="21.07" y="0">4</tspan></text>
    </g>
    <g id="RoomNumbers-32" data-name="RoomNumbers">
      <text class="cls-4" transform="translate(413.86 238.12) scale(.9 1)"><tspan x="0" y="0">523</tspan></text>
    </g>
    <g id="RoomNumbers-33" data-name="RoomNumbers">
      <text class="cls-4" transform="translate(371.34 238.12) scale(.9 1)"><tspan x="0" y="0">522</tspan></text>
    </g>
    <g id="RoomNumbers-34" data-name="RoomNumbers">
      <text class="cls-4" transform="translate(17.01 246.62) scale(.9 1)"><tspan x="0" y="0">534</tspan></text>
    </g>
    <g id="RoomNumbers-35" data-name="RoomNumbers">
      <text class="cls-4" transform="translate(138.9 215.44) scale(.9 1)"><tspan x="0" y="0">520</tspan></text>
    </g>
  </g>
  <g id="Doors">
    <line id="Door301" class="cls-1" x1="266.46" y1="170.08" x2="277.8" y2="170.08"/>
    <line id="DoorStairs" class="cls-1" x1="340.16" y1="170.08" x2="351.5" y2="170.08"/>
    <line id="Door303" class="cls-1" x1="337.32" y1="119.06" x2="348.66" y2="119.06"/>
    <line id="Door317" class="cls-1" x1="294.8" y1="119.06" x2="306.14" y2="119.06"/>
    <line id="Door318" class="cls-1" x1="255.12" y1="119.06" x2="266.46" y2="119.06"/>
    <line id="Door319" class="cls-1" x1="195.59" y1="119.06" x2="206.93" y2="119.06"/>
    <line id="Door320" class="cls-1" x1="130.39" y1="119.06" x2="141.73" y2="119.06"/>
    <line id="Door321" class="cls-1" x1="76.54" y1="119.06" x2="87.87" y2="119.06"/>
    <line id="Door304" class="cls-1" x1="379.84" y1="170.08" x2="391.18" y2="170.08"/>
    <line id="DoorStairs-2" data-name="DoorStairs" class="cls-1" x1="651.97" y1="459.22" x2="651.97" y2="473.39"/>
    <line id="DoorWC" class="cls-1" x1="711.5" y1="459.22" x2="711.5" y2="473.39"/>
    <line id="DoorWC-2" data-name="DoorWC" class="cls-1" x1="697.32" y1="394.02" x2="697.32" y2="408.19"/>
    <line id="DoorStairs-3" data-name="DoorStairs" class="cls-1" x1="102.05" y1="402.53" x2="102.05" y2="416.7"/>
    <line id="DoorStairs-4" data-name="DoorStairs" class="cls-1" x1="102.05" y1="351.5" x2="102.05" y2="365.67"/>
    <line id="DoorWC-3" data-name="DoorWC" class="cls-1" x1="102.05" y1="306.15" x2="102.05" y2="320.32"/>
    <line id="DoorWC-4" data-name="DoorWC" class="cls-1" x1="102.05" y1="260.79" x2="102.05" y2="274.97"/>
    <line id="Door324" class="cls-1" x1="56.69" y1="272.13" x2="56.69" y2="286.3"/>
    <line id="Door323" class="cls-1" x1="56.69" y1="175.75" x2="56.69" y2="189.93"/>
    <line id="Door325" class="cls-1" x1="48.19" y1="388.35" x2="48.19" y2="402.53"/>
    <line id="Door326" class="cls-1" x1="65.2" y1="439.38" x2="79.37" y2="439.38"/>
    <line id="Door322" class="cls-1" x1="56.69" y1="121.9" x2="56.69" y2="136.07"/>
    <line id="Door315" class="cls-1" x1="685.98" y1="266.46" x2="685.98" y2="280.64"/>
    <line id="Door316" class="cls-1" x1="685.98" y1="362.84" x2="685.98" y2="377.01"/>
    <line id="Door324-2" data-name="Door324" class="cls-1" x1="56.69" y1="232.45" x2="56.69" y2="246.62"/>
    <line id="Door324-3" data-name="Door324" class="cls-1" x1="651.97" y1="337.33" x2="651.97" y2="351.5"/>
    <line id="Door324-4" data-name="Door324" class="cls-1" x1="685.98" y1="221.11" x2="685.98" y2="235.28"/>
    <line id="Door316-2" data-name="Door316" class="cls-1" x1="685.98" y1="320.32" x2="685.98" y2="334.49"/>
    <line id="Door316-3" data-name="Door316" class="cls-1" x1="685.98" y1="178.59" x2="685.98" y2="192.76"/>
    <line id="Door316-4" data-name="Door316" class="cls-1" x1="685.98" y1="133.23" x2="685.98" y2="147.41"/>
    <line id="Door304-2" data-name="Door304" class="cls-1" x1="422.36" y1="170.08" x2="433.7" y2="170.08"/>
    <line id="Door304-3" data-name="Door304" class="cls-1" x1="459.21" y1="170.08" x2="470.55" y2="170.08"/>
    <line id="Door304-4" data-name="Door304" class="cls-1" x1="493.23" y1="170.08" x2="504.57" y2="170.08"/>
    <line id="Door304-5" data-name="Door304" class="cls-1" x1="530.08" y1="170.08" x2="541.42" y2="170.08"/>
    <line id="Door304-6" data-name="Door304" class="cls-1" x1="572.6" y1="170.08" x2="583.94" y2="170.08"/>
    <line id="Door304-7" data-name="Door304" class="cls-1" x1="620.79" y1="170.08" x2="632.13" y2="170.08"/>
    <line id="Door304-8" data-name="Door304" class="cls-1" x1="382.68" y1="119.06" x2="394.02" y2="119.06"/>
    <line id="Door304-9" data-name="Door304" class="cls-1" x1="433.7" y1="119.06" x2="445.04" y2="119.06"/>
    <line id="Door304-10" data-name="Door304" class="cls-1" x1="484.72" y1="119.06" x2="496.06" y2="119.06"/>
    <line id="Door304-11" data-name="Door304" class="cls-1" x1="535.75" y1="119.06" x2="547.09" y2="119.06"/>
    <line id="Door304-12" data-name="Door304" class="cls-1" x1="586.77" y1="119.06" x2="598.11" y2="119.06"/>
    <line id="Door304-13" data-name="Door304" class="cls-1" x1="629.29" y1="119.06" x2="640.63" y2="119.06"/>
    <line id="Door304-14" data-name="Door304" class="cls-1" x1="666.14" y1="119.06" x2="677.48" y2="119.06"/>
    <line id="Door304-15" data-name="Door304" class="cls-1" x1="116.22" y1="170.08" x2="127.56" y2="170.08"/>
  </g>
  <g id="pathdots">
    <circle class="cls-6" cx="75.12" cy="406.78" r="4.25"/>
    <circle class="cls-6" cx="75.12" cy="358.59" r="4.25"/>
    <circle class="cls-6" cx="76.54" cy="313.23" r="4.25"/>
    <circle class="cls-6" cx="77.95" cy="276.38" r="4.25"/>
    <circle class="cls-6" cx="77.95" cy="239.53" r="4.25"/>
    <circle class="cls-6" cx="77.95" cy="182.84" r="4.25"/>
    <circle class="cls-6" cx="77.95" cy="140.32" r="4.25"/>
    <circle class="cls-6" cx="128.98" cy="140.32" r="4.25"/>
    <circle class="cls-6" cx="199.84" cy="140.32" r="4.25"/>
    <circle class="cls-6" cx="262.2" cy="140.32" r="4.25"/>
    <circle class="cls-6" cx="301.89" cy="140.32" r="4.25"/>
    <circle class="cls-6" cx="344.41" cy="140.32" r="4.25"/>
    <circle class="cls-6" cx="386.93" cy="140.32" r="4.25"/>
    <circle class="cls-6" cx="433.7" cy="140.32" r="4.25"/>
    <circle class="cls-6" cx="466.3" cy="140.32" r="4.25"/>
    <circle class="cls-6" cx="494.65" cy="140.32" r="4.25"/>
    <circle class="cls-6" cx="534.33" cy="140.32" r="4.25"/>
    <circle class="cls-6" cx="588.19" cy="140.32" r="4.25"/>
    <circle class="cls-6" cx="633.54" cy="140.32" r="4.25"/>
    <circle class="cls-6" cx="667.56" cy="140.32" r="4.25"/>
    <circle class="cls-6" cx="667.56" cy="188.51" r="4.25"/>
    <circle class="cls-6" cx="667.56" cy="228.19" r="4.25"/>
    <circle class="cls-6" cx="667.56" cy="273.55" r="4.25"/>
    <circle class="cls-6" cx="667.56" cy="327.41" r="4.25"/>
    <circle class="cls-6" cx="667.56" cy="369.93" r="4.25"/>
    <circle class="cls-6" cx="667.56" cy="401.11" r="4.25"/>
    <circle class="cls-6" cx="667.56" cy="463.47" r="4.25"/>
  </g>
</svg>
