<?xml version="1.0" encoding="UTF-8"?>
<svg version="1.2" baseProfile="tiny" id="Layer_1" preserveAspectRatio="xMidYMid meet" xmlns="http://www.w3.org/2000/svg" xmlns:xlink="http://www.w3.org/1999/xlink"
	width="771" height="539" viewBox="0 0 771 539" overflow="visible" xml:space="preserve">
  <defs>
    <style>
      .cls-1 {
        stroke: #323232;
      }

      .cls-1, .cls-2 {
        stroke-width: 5.67px;
      }

      .cls-1, .cls-2, .cls-3 {
        fill: none;
        stroke-miterlimit: 10;
      }

      .cls-4 {
        fill: #fff;
        font-family: FranklinGothic-Medium, 'Franklin Gothic Medium';
        font-size: 18.4px;
        font-weight: 500;
        isolation: isolate;
      }

      .cls-5 {
        fill: #808285;
      }

      .cls-5, .cls-6, .cls-7 {
        stroke-width: 0px;
      }

      .cls-2, .cls-3 {
        stroke: #000;
      }

      .cls-6 {
        fill: #bcbec0;
      }

      .cls-3 {
        stroke-width: 5.67px;
      }

      .cls-8 {
        letter-spacing: -.03em;
      }

      .cls-7 {
        fill: #535889;
      }
    </style>
  </defs>
  <g id="Background">
    <rect class="cls-6" x="2.83" y="3.07" width="150.2" height="535.8"/>
    <rect class="cls-6" x="564.09" y="2.84" width="203.25" height="476.17"/>
    <polygon class="cls-6" points="365.67 3.07 566.93 3.07 563.85 297.48 362.58 297.48 365.67 3.07"/>
    <rect class="cls-6" x="362.83" y="3.07" width="85" height="294.8"/>
    <rect class="cls-6" x="147.43" y="5.87" width="221.1" height="243.8"/>
  </g>
  <g id="Stairs">
    <rect class="cls-5" x="569.79" y="394.03" width="76.5" height="76.5"/>
    <rect class="cls-5" x="334.49" y="175.75" width="22.68" height="65.2"/>
    <rect class="cls-5" x="107.72" y="343" width="39.69" height="31.18"/>
    <rect class="cls-5" x="107.72" y="385.52" width="39.69" height="48.19"/>
  </g>
  <g id="Service">
    <rect class="cls-7" x="702.99" y="396.86" width="59.53" height="25.51"/>
    <rect class="cls-7" x="717.17" y="433.71" width="45.35" height="36.85"/>
    <rect class="cls-7" x="107.72" y="297.64" width="39.69" height="34.02"/>
    <rect class="cls-7" x="107.72" y="252.29" width="39.69" height="34.02"/>
    <rect class="cls-7" x="569.76" y="303.31" width="76.54" height="79.37"/>
    <rect class="cls-7" x="209.76" y="175.75" width="70.87" height="65.2"/>
    <rect class="cls-7" x="8.5" y="110.56" width="34.02" height="323.15"/>
    <rect class="cls-7" x="28.35" y="110.56" width="22.68" height="240.94"/>
    <rect class="cls-7" x="368.5" y="175.75" width="31.18" height="116.22"/>
    <rect class="cls-7" x="411.02" y="113.39" width="68.03" height="178.58"/>
    <rect class="cls-7" x="490.39" y="113.39" width="73.7" height="178.58"/>
    <rect class="cls-7" x="575.43" y="113.39" width="70.87" height="178.58"/>
    <rect class="cls-7" x="691.65" y="354.34" width="70.87" height="31.18"/>
    <rect class="cls-7" x="8.5" y="445.04" width="138.9" height="85.04"/>
    <rect class="cls-7" x="107.72" y="175.75" width="39.69" height="65.2"/>
    <rect class="cls-7" x="291.97" y="175.75" width="31.18" height="65.2"/>
    <rect class="cls-7" x="8.5" y="8.51" width="348.66" height="110.55"/>
    <rect class="cls-7" x="368.5" y="8.51" width="31.18" height="48.19"/>
    <rect class="cls-7" x="411.02" y="8.51" width="351.5" height="48.19"/>
    <rect class="cls-7" x="691.65" y="51.03" width="70.87" height="291.97"/>
    <rect class="cls-7" x="158.74" y="175.75" width="39.69" height="65.2"/>
  </g>
  <g id="Stroke">
    <line class="cls-3" x1="2.89" y1=".03" x2="2.89" y2="538.53"/>
    <line class="cls-3" x1="5.69" y1="2.83" x2="770.99" y2="2.83"/>
    <line class="cls-3" x1="5.69" y1="535.73" x2="155.89" y2="535.73"/>
    <line class="cls-3" x1="153.09" y1="532.93" x2="153.09" y2="243.73"/>
    <line class="cls-3" x1="768.19" y1="5.63" x2="768.19" y2="479.03"/>
    <line class="cls-3" x1="155.89" y1="246.63" x2="365.69" y2="246.63"/>
    <line class="cls-3" x1="362.89" y1="249.43" x2="362.89" y2="300.43"/>
    <line class="cls-3" x1="365.69" y1="297.63" x2="447.89" y2="297.63"/>
    <line class="cls-3" x1="564.09" y1="391.13" x2="564.09" y2="479.03"/>
    <line class="cls-3" x1="566.89" y1="476.23" x2="765.39" y2="476.23"/>
    <line class="cls-3" x1="765.39" y1="428.03" x2="694.49" y2="428.03"/>
    <line class="cls-3" x1="711.49" y1="430.83" x2="711.49" y2="459.23"/>
    <line class="cls-3" x1="697.29" y1="425.13" x2="697.29" y2="408.13"/>
    <line class="cls-3" x1="561.29" y1="388.33" x2="598.09" y2="388.33"/>
    <line class="cls-3" x1="598.09" y1="388.33" x2="654.79" y2="388.33"/>
    <line class="cls-3" x1="651.99" y1="385.53" x2="651.99" y2="459.23"/>
    <line class="cls-3" x1="447.87" y1="297.64" x2="654.8" y2="297.64"/>
    <line class="cls-3" x1="651.97" y1="300.48" x2="651.97" y2="385.52"/>
    <line class="cls-3" x1="765.35" y1="391.19" x2="683.15" y2="391.19"/>
    <line class="cls-3" x1="685.98" y1="388.35" x2="685.98" y2="65.2"/>
    <line class="cls-3" x1="362.83" y1="243.79" x2="362.83" y2="167.25"/>
    <line class="cls-3" x1="688.82" y1="62.37" x2="362.83" y2="62.37"/>
    <line class="cls-3" x1="564.09" y1="385.52" x2="564.09" y2="300.48"/>
    <line class="cls-3" x1="360" y1="170.08" x2="99.21" y2="170.08"/>
    <line class="cls-3" x1="102.05" y1="172.92" x2="102.05" y2="442.21"/>
    <line class="cls-3" x1="56.7" y1="121.89" x2="56.7" y2="345.83"/>
    <line class="cls-3" x1="48.19" y1="399.69" x2="48.19" y2="442.21"/>
    <line class="cls-3" x1="5.67" y1="439.38" x2="45.35" y2="439.38"/>
    <line class="cls-3" x1="104.88" y1="439.38" x2="150.24" y2="439.38"/>
    <line class="cls-3" x1="51.02" y1="439.38" x2="99.21" y2="439.38"/>
    <line class="cls-3" x1="56.69" y1="345.83" x2="56.69" y2="354.34"/>
    <line class="cls-3" x1="48.19" y1="399.69" x2="48.19" y2="360.01"/>
    <line class="cls-3" x1="45.35" y1="357.17" x2="59.53" y2="357.17"/>
    <line class="cls-3" x1="99.21" y1="379.85" x2="153.11" y2="379.85"/>
    <line class="cls-3" x1="99.21" y1="337.35" x2="155.91" y2="337.35"/>
    <line class="cls-3" x1="99.21" y1="291.95" x2="155.91" y2="291.95"/>
    <line class="cls-3" x1="99.21" y1="246.65" x2="155.91" y2="246.65"/>
    <line class="cls-3" x1="204.09" y1="243.79" x2="204.09" y2="172.92"/>
    <line class="cls-3" x1="328.82" y1="172.92" x2="328.82" y2="243.79"/>
    <line class="cls-3" x1="651.97" y1="294.81" x2="651.97" y2="104.89"/>
    <line class="cls-3" x1="649.13" y1="107.72" x2="405.35" y2="107.72"/>
    <line class="cls-3" x1="405.35" y1="136.07" x2="405.35" y2="104.89"/>
    <line class="cls-3" x1="405.35" y1="136.07" x2="405.35" y2="294.81"/>
    <line class="cls-3" x1="362.83" y1="127.56" x2="362.83" y2="59.53"/>
    <line class="cls-3" x1="365.67" y1="170.08" x2="402.52" y2="170.08"/>
    <line class="cls-3" x1="360" y1="124.73" x2="59.53" y2="124.73"/>
    <line class="cls-3" x1="484.72" y1="110.56" x2="484.72" y2="294.81"/>
    <line class="cls-3" x1="569.76" y1="294.81" x2="569.76" y2="110.56"/>
    <line class="cls-3" x1="685.98" y1="348.67" x2="765.35" y2="348.67"/>
    <line class="cls-3" x1="286.3" y1="243.79" x2="286.3" y2="172.92"/>
    <line class="cls-3" x1="362.83" y1="59.53" x2="362.83" y2="5.67"/>
    <line class="cls-3" x1="405.35" y1="59.53" x2="405.35" y2="5.67"/>
    <line class="cls-2" x1="153.07" y1="243.79" x2="153.07" y2="172.92"/>
  </g>
  <g id="RoomNumbers">
    <text class="cls-4" transform="translate(592.44 345.83) scale(.9 1)"><tspan x="0" y="0">405</tspan></text>
    <text class="cls-4" transform="translate(428.03 218.27) scale(.9 1)"><tspan x="0" y="0">406</tspan></text>
    <text class="cls-4" transform="translate(598.11 218.27) scale(.9 1)"><tspan x="0" y="0">405</tspan></text>
    <text class="cls-4" transform="translate(513.07 218.27) scale(.9 1)"><tspan x="0" y="0">404</tspan></text>
    <text id="_426" data-name="426" class="cls-4" transform="translate(368.5 39.69) scale(.9 1)"><tspan x="0" y="0">426</tspan></text>
    <text class="cls-4" transform="translate(59.53 493.23) scale(.9 1)"><tspan x="0" y="0">433</tspan></text>
    <text class="cls-4" transform="translate(113.39 215.44) scale(.9 1)"><tspan x="0" y="0">4</tspan><tspan class="cls-8" x="10.79" y="0">3</tspan><tspan x="21.05" y="0">1</tspan></text>
    <text class="cls-4" transform="translate(229.61 215.44) scale(.9 1)"><tspan x="0" y="0">428</tspan></text>
  </g>
  <g id="Doors">
    <line id="Door428" class="cls-1" x1="240.94" y1="170.08" x2="252.28" y2="170.08"/>
    <line id="Door426" class="cls-1" x1="377.01" y1="62.37" x2="388.35" y2="62.37"/>
    <line id="DoorWC" class="cls-1" x1="102.05" y1="272.13" x2="102.05" y2="260.79"/>
    <line id="Door431" class="cls-1" x1="102.05" y1="212.6" x2="102.05" y2="201.27"/>
    <line id="DoorWC-2" data-name="DoorWC" class="cls-1" x1="102.05" y1="320.32" x2="102.05" y2="308.98"/>
    <line id="DoorStairs" class="cls-1" x1="102.05" y1="362.84" x2="102.05" y2="351.5"/>
    <line id="DoorStairs-2" data-name="DoorStairs" class="cls-1" x1="102.05" y1="408.19" x2="102.05" y2="396.86"/>
    <line id="DoorWC-3" data-name="DoorWC" class="cls-1" x1="685.98" y1="374.18" x2="685.98" y2="362.84"/>
    <line id="DoorWC-4" data-name="DoorWC" class="cls-1" x1="697.32" y1="408.19" x2="697.32" y2="394.02"/>
    <line id="DoorWC-5" data-name="DoorWC" class="cls-1" x1="711.5" y1="473.39" x2="711.5" y2="459.22"/>
    <line id="DoorStairs-3" data-name="DoorStairs" class="cls-1" x1="651.97" y1="473.39" x2="651.97" y2="459.22"/>
    <line id="Door405" class="cls-1" x1="651.97" y1="133.23" x2="651.97" y2="121.9"/>
    <line id="Door404" class="cls-1" x1="530.08" y1="107.72" x2="541.42" y2="107.72"/>
    <line id="Door406" class="cls-1" x1="450.71" y1="107.72" x2="462.05" y2="107.72"/>
    <line id="Door433" class="cls-1" x1="65.2" y1="439.38" x2="76.54" y2="439.38"/>
    <line id="DoorStairs-4" data-name="DoorStairs" class="cls-1" x1="340.16" y1="170.08" x2="351.5" y2="170.08"/>
  </g>
  <g id="pathdots">
    <circle class="cls-6" cx="75.12" cy="403.94" r="4.25"/>
    <circle class="cls-6" cx="77.95" cy="355.75" r="4.25"/>
    <circle class="cls-6" cx="80.79" cy="313.23" r="4.25"/>
    <circle class="cls-6" cx="80.79" cy="267.88" r="4.25"/>
    <circle class="cls-6" cx="80.79" cy="208.35" r="4.25"/>
    <circle class="cls-6" cx="80.79" cy="145.99" r="4.25"/>
    <circle class="cls-6" cx="245.2" cy="145.99" r="4.25"/>
    <circle class="cls-6" cx="345.83" cy="145.99" r="4.25"/>
    <circle class="cls-6" cx="384.09" cy="145.99" r="4.25"/>
    <circle class="cls-6" cx="384.09" cy="83.63" r="4.25"/>
    <circle class="cls-6" cx="454.96" cy="83.63" r="4.25"/>
    <circle class="cls-6" cx="537.17" cy="83.63" r="4.25"/>
    <circle class="cls-6" cx="667.56" cy="83.63" r="4.25"/>
    <circle class="cls-6" cx="667.56" cy="128.98" r="4.25"/>
    <circle class="cls-6" cx="670.39" cy="367.09" r="4.25"/>
    <circle class="cls-6" cx="670.39" cy="403.94" r="4.25"/>
    <circle class="cls-6" cx="670.39" cy="463.47" r="4.25"/>
  </g>
</svg>
