<?xml version="1.0" encoding="UTF-8"?>
<svg version="1.2" baseProfile="tiny" id="Layer_1" preserveAspectRatio="xMidYMid meet" xmlns="http://www.w3.org/2000/svg" xmlns:xlink="http://www.w3.org/1999/xlink"
	width="771" height="539" viewBox="0 0 771 539" overflow="visible" xml:space="preserve">
  <defs>
    <style>
      .cls-1 {
        letter-spacing: .01em;
      }

      .cls-2 {
        stroke: #323232;
        stroke-width: 5.67px;
      }

      .cls-2, .cls-3 {
        fill: none;
        stroke-miterlimit: 10;
      }

      .cls-4 {
        font-size: 18.4px;
      }

      .cls-4, .cls-5 {
        fill: #fff;
        font-family: FranklinGothic-Medium, 'Franklin Gothic Medium';
        font-weight: 500;
        isolation: isolate;
      }

      .cls-6 {
        letter-spacing: -.03em;
      }

      .cls-7 {
        fill: #808285;
      }

      .cls-7, .cls-8, .cls-9, .cls-10 {
        stroke-width: 0px;
      }

      .cls-11 {
        letter-spacing: -.03em;
      }

      .cls-5 {
        font-size: 9.83px;
      }

      .cls-12 {
        letter-spacing: .01em;
      }

      .cls-13 {
        letter-spacing: -.06em;
      }

      .cls-14 {
        letter-spacing: -.02em;
      }

      .cls-15 {
        letter-spacing: 0em;
      }

      .cls-16 {
        letter-spacing: 0em;
      }

      .cls-17 {
        letter-spacing: -.03em;
      }

      .cls-18 {
        letter-spacing: 0em;
      }

      .cls-19 {
        letter-spacing: -.02em;
      }

      .cls-8 {
        fill: #bcbec0;
      }

      .cls-20 {
        letter-spacing: 0em;
      }

      .cls-3 {
        stroke: #000;
        stroke-width: 5.67px;
      }

      .cls-21 {
        letter-spacing: -.01em;
      }

      .cls-22 {
        letter-spacing: -.03em;
      }

      .cls-9 {
        fill: #535889;
      }

      .cls-10 {
        fill: #d16b6b;
      }
    </style>
  </defs>
  <g id="Background">
    <rect class="cls-8" x="2.83" y="3.07" width="150.2" height="535.8"/>
    <rect class="cls-8" x="564.09" y="2.84" width="203.25" height="476.17"/>
    <rect class="cls-8" x="365.67" y="3.07" width="201.27" height="348.43"/>
    <rect class="cls-8" x="362.83" y="3.07" width="85" height="294.8"/>
    <rect class="cls-8" x="147.43" y="5.87" width="221.1" height="243.8"/>
  </g>
  <g id="Rooms">
    <rect class="cls-10" x="569.76" y="303.31" width="76.54" height="79.37"/>
    <rect class="cls-10" x="419.53" y="8.51" width="113.39" height="226.77"/>
    <rect class="cls-10" x="544.25" y="8.51" width="110.55" height="226.77"/>
    <rect class="cls-10" x="666.14" y="8.51" width="96.38" height="226.77"/>
    <rect class="cls-10" x="691.65" y="246.62" width="70.87" height="53.86"/>
    <rect class="cls-10" x="691.65" y="311.82" width="70.87" height="70.87"/>
    <rect class="cls-10" x="544.25" y="303.31" width="14.17" height="45.35"/>
    <rect class="cls-10" x="518.74" y="303.31" width="14.17" height="45.35"/>
    <rect class="cls-10" x="493.23" y="303.31" width="14.17" height="45.35"/>
    <rect class="cls-10" x="467.72" y="303.31" width="14.17" height="45.35"/>
    <rect class="cls-10" x="442.2" y="303.31" width="14.17" height="45.35"/>
    <rect class="cls-10" x="416.69" y="303.31" width="14.17" height="45.35"/>
    <rect class="cls-10" x="391.18" y="303.31" width="14.17" height="45.35"/>
    <rect class="cls-10" x="368.5" y="303.31" width="11.34" height="45.35"/>
    <rect class="cls-10" x="209.76" y="175.75" width="113.39" height="65.2"/>
    <rect class="cls-10" x="323.15" y="8.51" width="34.02" height="104.88"/>
    <rect class="cls-10" x="243.78" y="8.51" width="68.03" height="104.88"/>
    <rect class="cls-10" x="170.08" y="8.51" width="62.36" height="104.88"/>
    <rect class="cls-10" x="113.39" y="8.51" width="45.35" height="104.88"/>
    <rect class="cls-10" x="62.36" y="8.51" width="39.69" height="104.88"/>
    <rect class="cls-10" x="8.5" y="8.51" width="42.52" height="124.72"/>
    <rect class="cls-10" x="8.5" y="144.57" width="42.52" height="76.54"/>
    <rect class="cls-10" x="8.5" y="232.45" width="42.52" height="119.06"/>
    <rect class="cls-10" x="8.5" y="362.84" width="34.02" height="70.87"/>
  </g>
  <g id="Stairs">
    <rect class="cls-7" x="569.79" y="394.03" width="76.5" height="76.5"/>
    <rect class="cls-7" x="334.49" y="175.75" width="22.68" height="65.2"/>
    <rect class="cls-7" x="107.72" y="343" width="39.69" height="31.18"/>
    <rect class="cls-7" x="107.72" y="385.52" width="39.69" height="48.19"/>
  </g>
  <g id="Service">
    <rect class="cls-9" x="368.5" y="8.51" width="39.69" height="104.88"/>
    <rect class="cls-9" x="702.99" y="396.86" width="59.53" height="25.51"/>
    <rect class="cls-9" x="717.17" y="433.71" width="45.35" height="36.85"/>
    <rect class="cls-9" x="107.72" y="175.75" width="90.71" height="65.2"/>
    <rect class="cls-9" x="8.5" y="445.04" width="138.9" height="85.04"/>
    <rect class="cls-9" x="107.72" y="297.64" width="39.69" height="34.02"/>
    <rect class="cls-9" x="107.72" y="252.29" width="39.69" height="34.02"/>
  </g>
  <g id="Stroke">
    <line class="cls-3" x1="2.89" y1=".03" x2="2.89" y2="538.53"/>
    <line class="cls-3" x1="5.69" y1="2.83" x2="770.99" y2="2.83"/>
    <line class="cls-3" x1="5.69" y1="535.73" x2="155.89" y2="535.73"/>
    <line class="cls-3" x1="153.09" y1="532.93" x2="153.09" y2="243.73"/>
    <line class="cls-3" x1="768.19" y1="5.63" x2="768.19" y2="479.03"/>
    <line class="cls-3" x1="155.89" y1="246.63" x2="365.69" y2="246.63"/>
    <line class="cls-3" x1="362.89" y1="249.43" x2="362.89" y2="300.43"/>
    <line class="cls-3" x1="365.69" y1="297.63" x2="447.89" y2="297.63"/>
    <line class="cls-3" x1="564.09" y1="391.13" x2="564.09" y2="479.03"/>
    <line class="cls-3" x1="566.89" y1="476.23" x2="765.39" y2="476.23"/>
    <line class="cls-3" x1="765.39" y1="428.03" x2="694.49" y2="428.03"/>
    <line class="cls-3" x1="711.49" y1="430.83" x2="711.49" y2="459.23"/>
    <line class="cls-3" x1="697.29" y1="425.13" x2="697.29" y2="408.13"/>
    <line class="cls-3" x1="561.29" y1="388.33" x2="598.09" y2="388.33"/>
    <line class="cls-3" x1="598.09" y1="388.33" x2="654.79" y2="388.33"/>
    <line class="cls-3" x1="651.99" y1="385.53" x2="651.99" y2="459.23"/>
    <line class="cls-3" x1="447.87" y1="297.64" x2="654.8" y2="297.64"/>
    <line class="cls-3" x1="651.97" y1="300.48" x2="651.97" y2="385.52"/>
    <line class="cls-3" x1="765.35" y1="391.19" x2="683.15" y2="391.19"/>
    <line class="cls-3" x1="685.98" y1="388.35" x2="685.98" y2="243.79"/>
    <line class="cls-3" x1="413.86" y1="243.79" x2="413.86" y2="5.67"/>
    <line class="cls-3" x1="416.69" y1="240.95" x2="765.35" y2="240.95"/>
    <line class="cls-3" x1="362.83" y1="243.79" x2="362.83" y2="167.25"/>
    <line class="cls-3" x1="411.02" y1="119.06" x2="187.06" y2="119.06"/>
    <line class="cls-3" x1="564.09" y1="385.52" x2="564.09" y2="300.48"/>
    <line class="cls-3" x1="362.83" y1="297.64" x2="362.83" y2="351.5"/>
    <line class="cls-3" x1="561.26" y1="354.34" x2="360" y2="354.34"/>
    <line class="cls-3" x1="462.05" y1="351.5" x2="462.05" y2="300.48"/>
    <line class="cls-3" x1="513.07" y1="351.5" x2="513.07" y2="300.48"/>
    <line class="cls-3" x1="538.58" y1="300.48" x2="538.58" y2="351.5"/>
    <line class="cls-3" x1="487.56" y1="351.5" x2="487.56" y2="300.48"/>
    <line class="cls-3" x1="411.02" y1="300.48" x2="411.02" y2="351.5"/>
    <line class="cls-3" x1="436.32" y1="351.37" x2="436.32" y2="300.35"/>
    <line class="cls-3" x1="385.51" y1="351.5" x2="385.51" y2="300.48"/>
    <line class="cls-3" x1="360" y1="170.08" x2="99.21" y2="170.08"/>
    <line class="cls-3" x1="102.05" y1="172.92" x2="102.05" y2="442.21"/>
    <line class="cls-3" x1="53.86" y1="119.06" x2="153" y2="119.09"/>
    <line class="cls-3" x1="153" y1="119.09" x2="266.4" y2="119.09"/>
    <line class="cls-3" x1="280.6" y1="119.09" x2="317.5" y2="119.09"/>
    <line class="cls-3" x1="331.6" y1="119.09" x2="360" y2="119.09"/>
    <line class="cls-3" x1="56.7" y1="121.89" x2="56.7" y2="345.83"/>
    <line class="cls-3" x1="48.19" y1="399.69" x2="48.19" y2="442.21"/>
    <line class="cls-3" x1="5.67" y1="439.38" x2="45.35" y2="439.38"/>
    <line class="cls-3" x1="104.88" y1="439.38" x2="150.24" y2="439.38"/>
    <line class="cls-3" x1="51.02" y1="439.38" x2="99.21" y2="439.38"/>
    <line class="cls-3" x1="538.58" y1="5.67" x2="538.58" y2="238.12"/>
    <line class="cls-3" x1="660.47" y1="238.12" x2="660.47" y2="5.67"/>
    <line class="cls-3" x1="765.35" y1="306.15" x2="688.82" y2="306.15"/>
    <line class="cls-3" x1="362.83" y1="116.23" x2="362.83" y2="5.67"/>
    <line class="cls-3" x1="317.48" y1="5.67" x2="317.48" y2="116.23"/>
    <line class="cls-3" x1="238.11" y1="5.67" x2="238.11" y2="116.23"/>
    <line class="cls-3" x1="164.41" y1="5.67" x2="164.41" y2="116.23"/>
    <line class="cls-3" x1="107.72" y1="5.67" x2="107.72" y2="116.23"/>
    <line class="cls-3" x1="56.7" y1="121.89" x2="56.69" y2="5.67"/>
    <line class="cls-3" x1="56.69" y1="345.83" x2="56.69" y2="354.34"/>
    <line class="cls-3" x1="48.19" y1="399.69" x2="48.19" y2="360.01"/>
    <line class="cls-3" x1="5.67" y1="357.17" x2="59.53" y2="357.17"/>
    <line class="cls-3" x1="53.86" y1="226.78" x2="5.67" y2="226.78"/>
    <line class="cls-3" x1="99.21" y1="379.85" x2="153.11" y2="379.85"/>
    <line class="cls-3" x1="99.21" y1="337.35" x2="155.91" y2="337.35"/>
    <line class="cls-3" x1="99.21" y1="291.95" x2="155.91" y2="291.95"/>
    <line class="cls-3" x1="99.21" y1="246.65" x2="155.91" y2="246.65"/>
    <line class="cls-3" x1="204.09" y1="243.79" x2="204.09" y2="172.92"/>
    <line class="cls-3" x1="328.82" y1="172.92" x2="328.82" y2="243.79"/>
    <line class="cls-3" x1="53.86" y1="138.9" x2="5.67" y2="138.9"/>
  </g>
  <g id="RoomNumbers">
    <text class="cls-4" transform="translate(459.21 127.56) scale(.9 1)"><tspan x="0" y="0">302</tspan></text>
    <g id="RoomNumbers-2" data-name="RoomNumbers">
      <text class="cls-4" transform="translate(583.94 127.56) scale(.9 1)"><tspan class="cls-22" x="0" y="0">3</tspan><tspan class="cls-15" x="10.26" y="0">1</tspan><tspan x="20.87" y="0">0</tspan></text>
    </g>
    <g id="RoomNumbers-3" data-name="RoomNumbers">
      <text class="cls-4" transform="translate(702.99 127.56) scale(.9 1)"><tspan class="cls-22" x="0" y="0">3</tspan><tspan class="cls-16" x="10.26" y="0">1</tspan><tspan x="20.96" y="0">4</tspan></text>
    </g>
    <g id="RoomNumbers-4" data-name="RoomNumbers">
      <text class="cls-4" transform="translate(711.5 277.8) scale(.9 1)"><tspan class="cls-22" x="0" y="0">3</tspan><tspan x="10.26" y="0">15</tspan></text>
    </g>
    <g id="RoomNumbers-5" data-name="RoomNumbers">
      <text class="cls-4" transform="translate(711.5 357.17) scale(.9 1)"><tspan class="cls-22" x="0" y="0">3</tspan><tspan class="cls-21" x="10.26" y="0">1</tspan><tspan x="20.79" y="0">6</tspan></text>
    </g>
    <g id="RoomNumbers-6" data-name="RoomNumbers">
      <text class="cls-4" transform="translate(592.44 345.83) scale(.9 1)"><tspan class="cls-22" x="0" y="0">3</tspan><tspan class="cls-18" x="10.26" y="0">1</tspan><tspan class="cls-20" x="21.15" y="0">3</tspan></text>
    </g>
    <g id="RoomNumbers-7" data-name="RoomNumbers">
      <text class="cls-4" transform="translate(252.28 215.44) scale(.9 1)"><tspan x="0" y="0">3</tspan><tspan class="cls-14" x="10.79" y="0">0</tspan><tspan x="21.12" y="0">1</tspan></text>
    </g>
    <g id="RoomNumbers-8" data-name="RoomNumbers">
      <text class="cls-4" transform="translate(325.98 70.87) scale(.9 1)"><tspan class="cls-22" x="0" y="0">3</tspan><tspan class="cls-13" x="10.26" y="0">1</tspan><tspan x="19.96" y="0">7</tspan></text>
    </g>
    <g id="RoomNumbers-9" data-name="RoomNumbers">
      <text class="cls-4" transform="translate(263.62 68.04) scale(.9 1)"><tspan class="cls-22" x="0" y="0">3</tspan><tspan class="cls-12" x="10.26" y="0">1</tspan><tspan x="21.27" y="0">8</tspan></text>
    </g>
    <g id="RoomNumbers-10" data-name="RoomNumbers">
      <text class="cls-4" transform="translate(187.09 68.04) scale(.9 1)"><tspan class="cls-22" x="0" y="0">3</tspan><tspan x="10.26" y="0">19</tspan></text>
    </g>
    <g id="RoomNumbers-11" data-name="RoomNumbers">
      <text class="cls-4" transform="translate(121.89 68.04) scale(.9 1)"><tspan x="0" y="0">320</tspan></text>
    </g>
    <g id="RoomNumbers-12" data-name="RoomNumbers">
      <text class="cls-4" transform="translate(68.03 68.04) scale(.9 1)"><tspan x="0" y="0">3</tspan><tspan class="cls-19" x="10.79" y="0">2</tspan><tspan class="cls-20" x="21.15" y="0">1</tspan></text>
    </g>
    <g id="RoomNumbers-13" data-name="RoomNumbers">
      <text class="cls-4" transform="translate(14.17 68.04) scale(.9 1)"><tspan x="0" y="0">322</tspan></text>
    </g>
    <g id="RoomNumbers-14" data-name="RoomNumbers">
      <text class="cls-4" transform="translate(17.01 187.09) scale(.9 1)"><tspan x="0" y="0">323</tspan></text>
    </g>
    <g id="RoomNumbers-15" data-name="RoomNumbers">
      <text class="cls-4" transform="translate(17.01 297.64) scale(.9 1)"><tspan x="0" y="0">3</tspan><tspan class="cls-11" x="10.79" y="0">2</tspan><tspan x="21.07" y="0">4</tspan></text>
    </g>
    <g id="RoomNumbers-16" data-name="RoomNumbers">
      <text class="cls-4" transform="translate(11.34 402.53) scale(.9 1)"><tspan x="0" y="0">325</tspan></text>
    </g>
    <g id="RoomNumbers-17" data-name="RoomNumbers">
      <text class="cls-5" transform="translate(377.01 334.5) rotate(-90) scale(1.17 1)"><tspan x="0" y="0">304</tspan></text>
    </g>
    <g id="RoomNumbers-18" data-name="RoomNumbers">
      <text class="cls-5" transform="translate(402.52 334.5) rotate(-90) scale(1.17 1)"><tspan x="0" y="0">305</tspan></text>
    </g>
    <g id="RoomNumbers-19" data-name="RoomNumbers">
      <text class="cls-5" transform="translate(428.03 334.5) rotate(-90) scale(1.17 1)"><tspan x="0" y="0">306</tspan></text>
    </g>
    <g id="RoomNumbers-20" data-name="RoomNumbers">
      <text class="cls-5" transform="translate(453.54 334.5) rotate(-90) scale(1.17 1)"><tspan x="0" y="0">3</tspan><tspan class="cls-17" x="5.77" y="0">0</tspan><tspan x="11.22" y="0">7</tspan></text>
    </g>
    <g id="RoomNumbers-21" data-name="RoomNumbers">
      <text class="cls-5" transform="translate(479.05 334.5) rotate(-90) scale(1.17 1)"><tspan x="0" y="0">308</tspan></text>
    </g>
    <g id="RoomNumbers-22" data-name="RoomNumbers">
      <text class="cls-5" transform="translate(504.57 334.5) rotate(-90) scale(1.17 1)"><tspan x="0" y="0">309</tspan></text>
    </g>
    <g id="RoomNumbers-23" data-name="RoomNumbers">
      <text class="cls-5" transform="translate(530.08 334.5) rotate(-90) scale(1.17 1)"><tspan class="cls-6" x="0" y="0">3</tspan><tspan x="5.48" y="0">11</tspan></text>
    </g>
    <g id="RoomNumbers-24" data-name="RoomNumbers">
      <text class="cls-5" transform="translate(555.59 334.5) rotate(-90) scale(1.17 1)"><tspan class="cls-6" x="0" y="0">3</tspan><tspan class="cls-1" x="5.48" y="0">1</tspan><tspan x="11.37" y="0">2</tspan></text>
    </g>
    <g id="RoomNumbers-25" data-name="RoomNumbers">
      <text class="cls-4" transform="translate(59.53 493.23) scale(.9 1)"><tspan x="0" y="0">326</tspan></text>
    </g>
    <g id="RoomNumbers-26" data-name="RoomNumbers">
      <text class="cls-4" transform="translate(374.17 70.87) scale(.9 1)"><tspan x="0" y="0">303</tspan></text>
    </g>
  </g>
  <g id="Doors">
    <line id="Door301" class="cls-2" x1="266.46" y1="170.08" x2="277.8" y2="170.08"/>
    <line id="DoorStairs" class="cls-2" x1="340.16" y1="170.08" x2="351.5" y2="170.08"/>
    <line id="Door303" class="cls-2" x1="382.68" y1="119.06" x2="394.02" y2="119.06"/>
    <line id="Door317" class="cls-2" x1="334.49" y1="119.06" x2="345.83" y2="119.06"/>
    <line id="Door318" class="cls-2" x1="272.13" y1="119.06" x2="283.46" y2="119.06"/>
    <line id="Door319" class="cls-2" x1="195.59" y1="119.06" x2="206.93" y2="119.06"/>
    <line id="Door320" class="cls-2" x1="130.39" y1="119.06" x2="141.73" y2="119.06"/>
    <line id="Door321" class="cls-2" x1="76.54" y1="119.06" x2="87.87" y2="119.06"/>
    <line id="Door304" class="cls-2" x1="368.5" y1="297.64" x2="379.84" y2="297.64"/>
    <line id="Door305" class="cls-2" x1="394.02" y1="297.64" x2="405.35" y2="297.64"/>
    <line id="Door306" class="cls-2" x1="419.53" y1="297.64" x2="430.87" y2="297.64"/>
    <line id="Door307" class="cls-2" x1="445.04" y1="297.64" x2="456.38" y2="297.64"/>
    <line id="Door308" class="cls-2" x1="470.55" y1="297.64" x2="481.89" y2="297.64"/>
    <line id="Door309" class="cls-2" x1="496.06" y1="297.64" x2="507.4" y2="297.64"/>
    <line id="Door311" class="cls-2" x1="521.57" y1="297.64" x2="532.91" y2="297.64"/>
    <line id="Door312" class="cls-2" x1="547.09" y1="297.64" x2="558.43" y2="297.64"/>
    <line id="Door302" class="cls-2" x1="470.55" y1="240.95" x2="481.89" y2="240.95"/>
    <line id="Door310" class="cls-2" x1="595.28" y1="240.95" x2="606.61" y2="240.95"/>
    <line id="Door314" class="cls-2" x1="666.14" y1="240.95" x2="677.48" y2="240.95"/>
    <line id="Door313" class="cls-2" x1="581.1" y1="297.64" x2="592.44" y2="297.64"/>
    <line id="DoorStairs-2" data-name="DoorStairs" class="cls-2" x1="651.97" y1="459.22" x2="651.97" y2="473.39"/>
    <line id="DoorWC" class="cls-2" x1="711.5" y1="459.22" x2="711.5" y2="473.39"/>
    <line id="DoorWC-2" data-name="DoorWC" class="cls-2" x1="697.32" y1="394.02" x2="697.32" y2="408.19"/>
    <line id="DoorStairs-3" data-name="DoorStairs" class="cls-2" x1="102.05" y1="402.53" x2="102.05" y2="416.7"/>
    <line id="DoorStairs-4" data-name="DoorStairs" class="cls-2" x1="102.05" y1="351.5" x2="102.05" y2="365.67"/>
    <line id="DoorWC-3" data-name="DoorWC" class="cls-2" x1="102.05" y1="306.15" x2="102.05" y2="320.32"/>
    <line id="DoorWC-4" data-name="DoorWC" class="cls-2" x1="102.05" y1="260.79" x2="102.05" y2="274.97"/>
    <line id="Door324" class="cls-2" x1="56.69" y1="272.13" x2="56.69" y2="286.3"/>
    <line id="Door323" class="cls-2" x1="56.69" y1="175.75" x2="56.69" y2="189.93"/>
    <line id="Door325" class="cls-2" x1="48.19" y1="388.35" x2="48.19" y2="402.53"/>
    <line id="Door326" class="cls-2" x1="65.2" y1="439.38" x2="79.37" y2="439.38"/>
    <line id="Door322" class="cls-2" x1="56.69" y1="121.9" x2="56.69" y2="136.07"/>
    <line id="Door315" class="cls-2" x1="685.98" y1="266.46" x2="685.98" y2="280.64"/>
    <line id="Door316" class="cls-2" x1="685.98" y1="340.16" x2="685.98" y2="354.34"/>
  </g>
  <g id="pathdots">
    <g>
      <circle class="cls-8" cx="500.31" cy="276.38" r="4.25"/>
      <circle class="cls-8" cx="667.56" cy="463.47" r="4.25"/>
      <circle class="cls-8" cx="77.95" cy="409.61" r="4.25"/>
      <circle class="cls-8" cx="77.95" cy="358.59" r="4.25"/>
      <circle class="cls-8" cx="77.95" cy="313.23" r="4.25"/>
      <circle class="cls-8" cx="77.95" cy="267.88" r="4.25"/>
      <circle class="cls-8" cx="77.95" cy="182.84" r="4.25"/>
      <circle class="cls-8" cx="77.95" cy="143.16" r="4.25"/>
      <circle class="cls-8" cx="134.65" cy="143.16" r="4.25"/>
      <circle class="cls-8" cx="199.84" cy="143.16" r="4.25"/>
      <circle class="cls-8" cx="276.38" cy="143.16" r="4.25"/>
      <circle class="cls-8" cx="341.57" cy="143.16" r="4.25"/>
      <circle class="cls-8" cx="386.93" cy="143.16" r="4.25"/>
      <circle class="cls-8" cx="386.93" cy="276.38" r="4.25"/>
      <circle class="cls-8" cx="418.11" cy="276.38" r="4.25"/>
      <circle class="cls-8" cx="446.46" cy="276.38" r="4.25"/>
      <circle class="cls-8" cx="474.8" cy="276.38" r="4.25"/>
      <circle class="cls-8" cx="525.83" cy="276.38" r="4.25"/>
      <circle class="cls-8" cx="551.34" cy="276.38" r="4.25"/>
      <circle class="cls-8" cx="585.35" cy="276.38" r="4.25"/>
      <circle class="cls-8" cx="667.56" cy="279.22" r="4.25"/>
      <circle class="cls-8" cx="667.56" cy="347.25" r="4.25"/>
      <circle class="cls-8" cx="667.56" cy="401.11" r="4.25"/>
    </g>
    <g>
      <circle class="cls-8" cx="500.31" cy="276.38" r="4.25"/>
      <circle class="cls-8" cx="667.56" cy="463.47" r="4.25"/>
      <circle class="cls-8" cx="77.95" cy="409.61" r="4.25"/>
      <circle class="cls-8" cx="77.95" cy="358.59" r="4.25"/>
      <circle class="cls-8" cx="77.95" cy="313.23" r="4.25"/>
      <circle class="cls-8" cx="77.95" cy="267.88" r="4.25"/>
      <circle class="cls-8" cx="77.95" cy="182.84" r="4.25"/>
      <circle class="cls-8" cx="77.95" cy="143.16" r="4.25"/>
      <circle class="cls-8" cx="134.65" cy="143.16" r="4.25"/>
      <circle class="cls-8" cx="199.84" cy="143.16" r="4.25"/>
      <circle class="cls-8" cx="276.38" cy="143.16" r="4.25"/>
      <circle class="cls-8" cx="341.57" cy="143.16" r="4.25"/>
      <circle class="cls-8" cx="386.93" cy="143.16" r="4.25"/>
      <circle class="cls-8" cx="386.93" cy="276.38" r="4.25"/>
      <circle class="cls-8" cx="418.11" cy="276.38" r="4.25"/>
      <circle class="cls-8" cx="446.46" cy="276.38" r="4.25"/>
      <circle class="cls-8" cx="474.8" cy="276.38" r="4.25"/>
      <circle class="cls-8" cx="525.83" cy="276.38" r="4.25"/>
      <circle class="cls-8" cx="551.34" cy="276.38" r="4.25"/>
      <circle class="cls-8" cx="585.35" cy="276.38" r="4.25"/>
      <circle class="cls-8" cx="667.56" cy="279.22" r="4.25"/>
      <circle class="cls-8" cx="667.56" cy="347.25" r="4.25"/>
      <circle class="cls-8" cx="667.56" cy="401.11" r="4.25"/>
    </g>
  </g>
</svg>
