<?xml version="1.0" encoding="UTF-8"?>
<svg version="1.2" baseProfile="tiny" id="Layer_1" preserveAspectRatio="xMidYMid meet" xmlns="http://www.w3.org/2000/svg" xmlns:xlink="http://www.w3.org/1999/xlink"
	width="771" height="539" viewBox="0 0 771 539" overflow="visible" xml:space="preserve">
  <defs>
    <style>
      .cls-1 {
        font-size: 12.31px;
      }

      .cls-1, .cls-2 {
        fill: #fff;
        font-family: FranklinGothic-Medium, 'Franklin Gothic Medium';
        font-weight: 500;
        isolation: isolate;
      }

      .cls-3, .cls-4 {
        stroke: #323232;
      }

      .cls-3, .cls-4, .cls-5, .cls-6 {
        fill: none;
        stroke-miterlimit: 10;
      }

      .cls-3, .cls-5 {
        stroke-width: 5.67px;
      }

      .cls-2 {
        font-size: 18.4px;
      }

      .cls-7 {
        fill: #808285;
      }

      .cls-7, .cls-8, .cls-9, .cls-10 {
        stroke-width: 0px;
      }

      .cls-11 {
        letter-spacing: -.03em;
      }

      .cls-4, .cls-6 {
        stroke-width: 5.67px;
      }

      .cls-12 {
        letter-spacing: -.01em;
      }

      .cls-13 {
        letter-spacing: .01em;
      }

      .cls-14 {
        letter-spacing: 0em;
      }

      .cls-15 {
        letter-spacing: 0em;
      }

      .cls-16 {
        letter-spacing: 0em;
      }

      .cls-17 {
        letter-spacing: -.03em;
      }

      .cls-5, .cls-6 {
        stroke: #000;
      }

      .cls-8 {
        fill: #bcbec0;
      }

      .cls-18 {
        letter-spacing: 0em;
      }

      .cls-9 {
        fill: #535889;
      }

      .cls-10 {
        fill: #d16b6b;
      }

      .cls-19 {
        letter-spacing: 0em;
      }

      .cls-20 {
        letter-spacing: -.06em;
      }
    </style>
  </defs>
  <g id="Background">
    <rect class="cls-8" x="3.63" y="3.07" width="150.2" height="535.8"/>
    <rect class="cls-8" x="561.53" y="5.87" width="204.1" height="470.5"/>
    <rect class="cls-8" x="443.03" y="3.07" width="124.7" height="388.4"/>
    <rect class="cls-8" x="363.63" y="3.07" width="85" height="294.8"/>
    <rect class="cls-8" x="148.23" y="5.87" width="221.1" height="243.8"/>
  </g>
  <g id="Rooms">
    <rect class="cls-10" x="252.23" y="153.03" width="17" height="87.9"/>
    <rect class="cls-10" x="104.83" y="153.03" width="136.1" height="87.9"/>
    <rect class="cls-10" x="308.93" y="153.03" width="17" height="87.9"/>
    <rect class="cls-10" x="85.03" y="447.83" width="62.4" height="82.2"/>
    <rect class="cls-10" x="8.43" y="447.83" width="65.2" height="82.2"/>
    <rect class="cls-10" x="8.43" y="212.53" width="48.2" height="223.9"/>
    <rect class="cls-10" x="8.43" y="99.23" width="48.2" height="102.1"/>
    <rect class="cls-10" x="8.43" y="8.43" width="141.7" height="79.4"/>
    <rect class="cls-10" x="161.53" y="8.43" width="76.5" height="79.4"/>
    <rect class="cls-10" x="249.43" y="8.43" width="48.2" height="79.4"/>
    <rect class="cls-10" x="308.93" y="8.43" width="48.2" height="79.4"/>
    <rect class="cls-10" x="450.63" y="303.23" width="138.9" height="79.4"/>
    <rect class="cls-10" x="683.13" y="300.43" width="79.4" height="85"/>
    <rect class="cls-10" x="683.13" y="204.03" width="79.4" height="85"/>
    <rect class="cls-10" x="683.13" y="110.53" width="79.4" height="82.2"/>
    <rect class="cls-10" x="714.23" y="8.43" width="48.2" height="90.7"/>
    <rect class="cls-10" x="620.73" y="8.43" width="82.2" height="59.5"/>
    <rect class="cls-10" x="280.53" y="153.03" width="17" height="87.9"/>
    <rect id="_Path_" data-name="&amp;lt;Path&amp;gt;" class="cls-10" x="561.21" y="8.51" width="48.19" height="59.53"/>
  </g>
  <g id="Stairs">
    <rect class="cls-7" x="422.33" y="223.93" width="31.2" height="68"/>
    <rect class="cls-7" x="569.73" y="394.03" width="76.5" height="76.5"/>
    <rect class="cls-7" x="104.83" y="385.53" width="42.5" height="51"/>
    <rect class="cls-7" x="104.83" y="342.93" width="42.5" height="31.2"/>
    <rect class="cls-7" x="337.23" y="153.03" width="19.8" height="87.9"/>
  </g>
  <g id="Service">
    <rect class="cls-9" x="479.03" y="8.53" width="70.9" height="59.5"/>
    <rect class="cls-9" x="717.13" y="433.63" width="45.3" height="36.9"/>
    <rect class="cls-9" x="702.93" y="396.83" width="59.5" height="25.5"/>
    <rect class="cls-9" x="104.83" y="297.63" width="42.5" height="34"/>
    <rect class="cls-9" x="104.83" y="252.23" width="42.5" height="34"/>
    <rect class="cls-9" x="368.43" y="8.43" width="42.5" height="53.9"/>
    <rect class="cls-9" x="368.43" y="167.23" width="42.5" height="124.74"/>
  </g>
  <g id="Stroke">
    <line class="cls-6" x1="2.83" y1=".03" x2="2.83" y2="538.53"/>
    <line class="cls-6" x1="5.63" y1="2.83" x2="770.93" y2="2.83"/>
    <line class="cls-6" x1="5.63" y1="535.73" x2="155.83" y2="535.73"/>
    <line class="cls-6" x1="153.03" y1="532.93" x2="153.03" y2="243.73"/>
    <line class="cls-6" x1="768.13" y1="5.63" x2="768.13" y2="479.03"/>
    <line class="cls-6" x1="155.83" y1="246.63" x2="365.63" y2="246.63"/>
    <line class="cls-6" x1="362.83" y1="249.43" x2="362.83" y2="300.43"/>
    <line class="cls-6" x1="365.63" y1="297.63" x2="447.83" y2="297.63"/>
    <line class="cls-6" x1="444.93" y1="300.43" x2="444.93" y2="391.13"/>
    <line class="cls-6" x1="447.83" y1="388.33" x2="566.83" y2="388.33"/>
    <line class="cls-6" x1="564.03" y1="391.13" x2="564.03" y2="479.03"/>
    <line class="cls-6" x1="566.83" y1="476.23" x2="765.33" y2="476.23"/>
    <line class="cls-6" x1="5.63" y1="93.53" x2="79.33" y2="93.53"/>
    <line class="cls-6" x1="93.53" y1="93.53" x2="158.63" y2="93.53"/>
    <line class="cls-6" x1="155.83" y1="5.63" x2="155.83" y2="93.53"/>
    <line class="cls-6" x1="172.83" y1="93.53" x2="272.03" y2="93.53"/>
    <line class="cls-6" x1="243.73" y1="5.63" x2="243.73" y2="93.53"/>
    <line class="cls-6" x1="286.23" y1="93.53" x2="323.13" y2="93.53"/>
    <line class="cls-6" x1="303.23" y1="93.53" x2="303.23" y2="5.63"/>
    <line class="cls-6" x1="337.23" y1="93.53" x2="365.63" y2="93.53"/>
    <line class="cls-6" x1="362.83" y1="90.73" x2="362.83" y2="5.63"/>
    <line class="cls-6" x1="79.33" y1="439.33" x2="79.33" y2="532.93"/>
    <line class="cls-6" x1="62.33" y1="442.13" x2="5.63" y2="442.13"/>
    <line class="cls-6" x1="96.33" y1="442.13" x2="150.23" y2="442.13"/>
    <line class="cls-6" x1="96.33" y1="379.83" x2="150.23" y2="379.83"/>
    <line class="cls-6" x1="96.33" y1="337.33" x2="153.03" y2="337.33"/>
    <line class="cls-6" x1="96.33" y1="291.93" x2="153.03" y2="291.93"/>
    <line class="cls-6" x1="96.33" y1="246.63" x2="153.03" y2="246.63"/>
    <line class="cls-6" x1="99.13" y1="340.13" x2="99.13" y2="362.83"/>
    <line class="cls-6" x1="99.13" y1="439.33" x2="99.13" y2="422.33"/>
    <line class="cls-6" x1="99.13" y1="382.63" x2="99.13" y2="408.13"/>
    <line class="cls-6" x1="99.13" y1="294.73" x2="99.13" y2="308.93"/>
    <line class="cls-6" x1="99.13" y1="334.43" x2="99.13" y2="323.13"/>
    <line class="cls-6" x1="99.13" y1="249.43" x2="99.13" y2="263.63"/>
    <line class="cls-6" x1="99.13" y1="289.13" x2="99.13" y2="277.73"/>
    <line class="cls-6" x1="62.33" y1="445.03" x2="62.33" y2="235.23"/>
    <line class="cls-6" x1="62.33" y1="201.23" x2="62.33" y2="221.03"/>
    <line class="cls-6" x1="5.63" y1="206.93" x2="59.43" y2="206.93"/>
    <line class="cls-6" x1="62.33" y1="96.33" x2="62.33" y2="187.03"/>
    <line class="cls-6" x1="99.13" y1="246.63" x2="99.13" y2="144.53"/>
    <line class="cls-6" x1="102.03" y1="147.43" x2="221.03" y2="147.43"/>
    <line class="cls-6" x1="235.23" y1="147.43" x2="252.23" y2="147.43"/>
    <line class="cls-6" x1="246.53" y1="150.23" x2="246.53" y2="243.73"/>
    <line class="cls-6" x1="266.43" y1="147.43" x2="280.53" y2="147.43"/>
    <line class="cls-6" x1="274.93" y1="150.23" x2="274.93" y2="243.73"/>
    <line class="cls-6" x1="294.73" y1="147.43" x2="311.73" y2="147.43"/>
    <line class="cls-6" x1="303.23" y1="150.23" x2="303.23" y2="243.73"/>
    <line class="cls-6" x1="765.33" y1="428.03" x2="694.43" y2="428.03"/>
    <line class="cls-6" x1="711.43" y1="430.83" x2="711.43" y2="459.23"/>
    <line class="cls-6" x1="697.23" y1="425.13" x2="697.23" y2="408.13"/>
    <line class="cls-6" x1="674.63" y1="391.13" x2="765.33" y2="391.13"/>
    <line class="cls-6" x1="677.43" y1="388.33" x2="677.43" y2="320.33"/>
    <line class="cls-6" x1="677.43" y1="306.13" x2="677.43" y2="223.93"/>
    <line class="cls-6" x1="680.23" y1="294.73" x2="768.13" y2="294.73"/>
    <line class="cls-6" x1="677.43" y1="209.73" x2="677.43" y2="192.73"/>
    <line class="cls-6" x1="680.23" y1="198.43" x2="768.13" y2="198.43"/>
    <line class="cls-6" x1="677.43" y1="178.53" x2="677.43" y2="102.03"/>
    <line class="cls-6" x1="680.23" y1="104.83" x2="765.33" y2="104.83"/>
    <line class="cls-6" x1="708.63" y1="102.03" x2="708.63" y2="90.73"/>
    <line class="cls-6" x1="708.63" y1="76.53" x2="708.63" y2="5.63"/>
    <line class="cls-6" x1="705.73" y1="73.73" x2="697.23" y2="73.73"/>
    <line class="cls-6" x1="697.23" y1="73.73" x2="632.03" y2="73.73"/>
    <line class="cls-6" x1="615.03" y1="76.53" x2="615.03" y2="5.63"/>
    <line class="cls-6" x1="473.33" y1="70.83" x2="473.33" y2="19.83"/>
    <line class="cls-6" x1="331.63" y1="246.63" x2="331.63" y2="144.53"/>
    <line class="cls-6" x1="325.93" y1="147.43" x2="337.23" y2="147.43"/>
    <line class="cls-6" x1="351.43" y1="147.43" x2="365.63" y2="147.43"/>
    <line class="cls-6" x1="362.83" y1="150.23" x2="362.83" y2="246.63"/>
    <line class="cls-6" x1="416.63" y1="144.53" x2="416.63" y2="297.63"/>
    <line class="cls-6" x1="365.63" y1="161.53" x2="385.43" y2="161.53"/>
    <line class="cls-6" x1="399.63" y1="161.53" x2="413.83" y2="161.53"/>
    <line class="cls-6" x1="416.63" y1="2.83" x2="416.63" y2="119.03"/>
    <line class="cls-6" x1="362.83" y1="93.53" x2="362.83" y2="119.03"/>
    <line class="cls-6" x1="362.83" y1="68.03" x2="379.83" y2="68.03"/>
    <line class="cls-6" x1="393.93" y1="68.03" x2="413.83" y2="68.03"/>
    <line class="cls-6" x1="459.13" y1="221.03" x2="459.13" y2="300.43"/>
    <line class="cls-6" x1="447.83" y1="297.63" x2="598.03" y2="297.63"/>
    <line class="cls-6" x1="595.23" y1="300.43" x2="595.23" y2="385.53"/>
    <line class="cls-6" x1="561.23" y1="388.33" x2="598.03" y2="388.33"/>
    <line class="cls-6" x1="598.03" y1="388.33" x2="654.73" y2="388.33"/>
    <line class="cls-6" x1="651.93" y1="385.53" x2="651.93" y2="459.23"/>
    <line class="cls-6" x1="555.53" y1="5.63" x2="555.53" y2="70.83"/>
    <line class="cls-5" x1="461.99" y1="218.27" x2="444.99" y2="218.27"/>
    <line class="cls-5" x1="419.47" y1="218.27" x2="430.81" y2="218.27"/>
    <line class="cls-6" x1="470.5" y1="73.71" x2="558.37" y2="73.71"/>
    <line class="cls-6" x1="612.23" y1="73.71" x2="592.39" y2="73.71"/>
    <line class="cls-6" x1="558.37" y1="73.71" x2="578.21" y2="73.71"/>
  </g>
  <g id="RoomNumbers">
    <text class="cls-2" transform="translate(25.15 494.34) scale(.9 1)"><tspan class="cls-13" x="0" y="0">1</tspan><tspan class="cls-11" x="11.01" y="0">2</tspan><tspan x="21.29" y="0">4</tspan></text>
    <text class="cls-2" transform="translate(100.5 493.5) scale(.9 1)"><tspan class="cls-13" x="0" y="0">1</tspan><tspan x="11.01" y="0">25</tspan></text>
    <text class="cls-2" transform="translate(16.9 326.64) scale(.9 1)"><tspan class="cls-13" x="0" y="0">1</tspan><tspan x="11.01" y="0">23</tspan></text>
    <text class="cls-2" transform="translate(18.81 156.83) scale(.9 1)"><tspan class="cls-13" x="0" y="0">1</tspan><tspan x="11.01" y="0">22</tspan></text>
    <text class="cls-2" transform="translate(647.46 45.34) scale(.9 1)"><tspan class="cls-14" x="0" y="0">1</tspan><tspan class="cls-18" x="10.61" y="0">05</tspan></text>
    <text class="cls-2" transform="translate(65.78 52.03) scale(.9 1)"><tspan x="0" y="0">119</tspan></text>
    <text class="cls-2" transform="translate(184.75 52.19) scale(.9 1)"><tspan x="0" y="0">1</tspan><tspan class="cls-13" x="10.79" y="0">1</tspan><tspan x="21.8" y="0">8</tspan></text>
    <text class="cls-2" transform="translate(260.92 53.92) scale(.9 1)"><tspan x="0" y="0">1</tspan><tspan class="cls-15" x="10.79" y="0">1</tspan><tspan x="21.49" y="0">4</tspan></text>
    <text class="cls-2" transform="translate(319.46 53.74) scale(.9 1)"><tspan x="0" y="0">1</tspan><tspan class="cls-13" x="10.79" y="0">1</tspan><tspan x="21.8" y="0">2</tspan></text>
    <text class="cls-2" transform="translate(153.39 202.88) scale(.9 1)"><tspan x="0" y="0">1</tspan><tspan class="cls-20" x="10.79" y="0">1</tspan><tspan x="20.49" y="0">7</tspan></text>
    <text class="cls-1" transform="translate(250.31 197.24) scale(.9 1)"><tspan x="0" y="0">1</tspan><tspan class="cls-12" x="7.22" y="0">1</tspan><tspan x="14.26" y="0">6</tspan></text>
    <text class="cls-1" transform="translate(279.52 197.02) scale(.9 1)"><tspan x="0" y="0">115</tspan></text>
    <text class="cls-1" transform="translate(308.17 197.02) scale(.9 1)"><tspan x="0" y="0">1</tspan><tspan class="cls-16" x="7.22" y="0">1</tspan><tspan x="14.51" y="0">3</tspan></text>
    <text class="cls-2" transform="translate(706.46 350.71) scale(.9 1)"><tspan class="cls-19" x="0" y="0">1</tspan><tspan x="10.61" y="0">09</tspan></text>
    <text class="cls-2" transform="translate(708.01 254.71) scale(.9 1)"><tspan class="cls-19" x="0" y="0">1</tspan><tspan x="10.61" y="0">08</tspan></text>
    <text class="cls-2" transform="translate(707.24 157.16) scale(.9 1)"><tspan class="cls-19" x="0" y="0">1</tspan><tspan class="cls-17" x="10.61" y="0">0</tspan><tspan x="20.8" y="0">7</tspan></text>
    <text class="cls-2" transform="translate(724.45 58.5) scale(.9 1)"><tspan class="cls-19" x="0" y="0">1</tspan><tspan x="10.61" y="0">06</tspan></text>
    <text class="cls-2" transform="translate(569.71 45.36) scale(.9 1)"><tspan class="cls-14" x="0" y="0">1</tspan><tspan class="cls-18" x="10.61" y="0">04</tspan></text>
    <text class="cls-2" transform="translate(498.84 45.36) scale(.9 1)"><tspan class="cls-14" x="0" y="0">1</tspan><tspan class="cls-18" x="10.61" y="0">02</tspan></text>
  </g>
  <g id="pathdots">
    <circle class="cls-8" cx="80.73" cy="418.12" r="4.25"/>
    <circle class="cls-8" cx="80.73" cy="369.93" r="4.25"/>
    <circle class="cls-8" cx="80.73" cy="318.9" r="4.25"/>
    <circle class="cls-8" cx="80.73" cy="270.71" r="4.25"/>
    <circle class="cls-8" cx="80.73" cy="228.19" r="4.25"/>
    <circle class="cls-8" cx="80.73" cy="194.18" r="4.25"/>
    <circle class="cls-8" cx="80.73" cy="120.48" r="4.25"/>
    <circle class="cls-8" cx="165.77" cy="120.48" r="4.25"/>
    <circle class="cls-8" cx="228.14" cy="120.48" r="4.25"/>
    <circle class="cls-8" cx="259.32" cy="120.48" r="4.25"/>
    <circle class="cls-8" cx="287.66" cy="120.48" r="4.25"/>
    <circle class="cls-8" cx="318.84" cy="120.48" r="4.25"/>
    <circle class="cls-8" cx="344.36" cy="123.31" r="4.25"/>
    <circle class="cls-8" cx="392.54" cy="134.65" r="4.25"/>
    <circle class="cls-8" cx="437.9" cy="140.32" r="4.25"/>
    <circle class="cls-8" cx="480.42" cy="140.32" r="4.25"/>
    <circle class="cls-8" cx="522.94" cy="140.32" r="4.25"/>
    <circle class="cls-8" cx="556.95" cy="140.32" r="4.25"/>
    <circle class="cls-8" cx="599.47" cy="140.32" r="4.25"/>
    <circle class="cls-8" cx="633.49" cy="140.32" r="4.25"/>
    <circle class="cls-8" cx="633.49" cy="182.84" r="4.25"/>
    <circle class="cls-8" cx="633.49" cy="219.69" r="4.25"/>
    <circle class="cls-8" cx="633.49" cy="310.4" r="4.25"/>
    <circle class="cls-8" cx="661.84" cy="358.59" r="4.25"/>
    <circle class="cls-8" cx="667.51" cy="403.94" r="4.25"/>
    <circle class="cls-8" cx="667.51" cy="466.3" r="4.25"/>
    <circle id="stair-marker" class="cls-8" cx="100.58" cy="415.28" r="4.25"/>
    <circle id="stair-marker" data-name="stair-marker" class="cls-8" cx="100.58" cy="369.93" r="4.25"/>
    <circle id="stair-marker" data-name="stair-marker" class="cls-8" cx="344.36" cy="148.82" r="4.25"/>
    <circle id="stair-marker" data-name="stair-marker" class="cls-8" cx="650.5" cy="466.3" r="4.25"/>
  </g>
  <g id="Doors">
    <line id="Door122" class="cls-4" x1="62.31" y1="187.09" x2="62.31" y2="201.27"/>
    <line id="Door123" class="cls-4" x1="62.31" y1="221.11" x2="62.31" y2="235.28"/>
    <line id="DoorWC" class="cls-4" x1="99.16" y1="263.63" x2="99.16" y2="277.8"/>
    <line id="DoorWC-2" data-name="DoorWC" class="cls-4" x1="99.16" y1="308.98" x2="99.16" y2="323.16"/>
    <line id="DoorStairs" class="cls-4" x1="99.16" y1="362.84" x2="99.16" y2="377.01"/>
    <line id="DoorStairs-2" data-name="DoorStairs" class="cls-4" x1="99.16" y1="408.19" x2="99.16" y2="422.37"/>
    <line id="Door125" class="cls-4" x1="82.15" y1="442.21" x2="96.32" y2="442.21"/>
    <line id="Door124" class="cls-4" x1="65.14" y1="442.21" x2="76.48" y2="442.21"/>
    <line id="Door119" class="cls-4" x1="79.32" y1="93.55" x2="93.49" y2="93.55"/>
    <line id="Door118" class="cls-4" x1="158.69" y1="93.55" x2="172.86" y2="93.55"/>
    <line id="Door117" class="cls-4" x1="221.05" y1="147.41" x2="235.22" y2="147.41"/>
    <line id="Door116" class="cls-4" x1="252.23" y1="147.41" x2="266.4" y2="147.41"/>
    <line id="Door115" class="cls-4" x1="294.75" y1="147.41" x2="280.58" y2="147.41"/>
    <line id="Door114" class="cls-4" x1="272.07" y1="93.55" x2="286.25" y2="93.55"/>
    <line id="Door112" class="cls-4" x1="323.1" y1="93.55" x2="337.27" y2="93.55"/>
    <line id="Door113" class="cls-4" x1="311.76" y1="147.41" x2="325.93" y2="147.41"/>
    <line id="DoorStairs-3" data-name="DoorStairs" class="cls-4" x1="351.44" y1="147.41" x2="337.27" y2="147.41"/>
    <line id="DoorService" class="cls-4" x1="385.46" y1="161.58" x2="399.63" y2="161.58"/>
    <line id="DoorService-2" data-name="DoorService" class="cls-4" x1="379.79" y1="68.04" x2="393.96" y2="68.04"/>
    <line id="DoorStairs-4" data-name="DoorStairs" class="cls-4" x1="651.91" y1="459.22" x2="651.91" y2="473.39"/>
    <line id="DoorWC-3" data-name="DoorWC" class="cls-4" x1="711.44" y1="459.22" x2="711.44" y2="473.39"/>
    <line id="DoorWC-4" data-name="DoorWC" class="cls-4" x1="697.27" y1="394.02" x2="697.27" y2="408.19"/>
    <line id="Door109" class="cls-4" x1="677.43" y1="306.15" x2="677.43" y2="320.32"/>
    <line id="DoorWardrobe" class="cls-4" x1="444.99" y1="218.27" x2="430.81" y2="218.27"/>
    <line id="Door108" class="cls-3" x1="677.43" y1="209.77" x2="677.43" y2="223.94"/>
    <line id="Door107" class="cls-3" x1="677.43" y1="178.59" x2="677.43" y2="192.76"/>
    <line id="Door106" class="cls-3" x1="708.61" y1="76.54" x2="708.61" y2="90.71"/>
    <line id="Door105" class="cls-3" x1="617.9" y1="73.71" x2="632.07" y2="73.71"/>
    <line id="Door102" class="cls-3" x1="473.33" y1="5.67" x2="473.33" y2="19.85"/>
    <line id="Door104" class="cls-3" x1="578.21" y1="73.71" x2="592.39" y2="73.71"/>
  </g>
</svg>
