<?xml version="1.0" encoding="UTF-8"?>
<svg version="1.2" baseProfile="tiny" id="Layer_1" preserveAspectRatio="xMidYMid meet" xmlns="http://www.w3.org/2000/svg" xmlns:xlink="http://www.w3.org/1999/xlink"
	width="771" height="539" viewBox="0 0 771 539" overflow="visible" xml:space="preserve">
  <defs>
    <style>
      .cls-1 {
        stroke: #323232;
      }

      .cls-1, .cls-2 {
        stroke-width: 5.67px;
      }

      .cls-1, .cls-2, .cls-3 {
        fill: none;
        stroke-miterlimit: 10;
      }

      .cls-4 {
        fill: #fff;
        font-family: FranklinGothic-Medium, 'Franklin Gothic Medium';
        font-size: 18.4px;
        font-weight: 500;
        isolation: isolate;
      }

      .cls-5 {
        fill: #808285;
      }

      .cls-5, .cls-6, .cls-7, .cls-8 {
        stroke-width: 0px;
      }

      .cls-9 {
        letter-spacing: .01em;
      }

      .cls-10 {
        letter-spacing: -.02em;
      }

      .cls-11 {
        letter-spacing: 0em;
      }

      .cls-12 {
        letter-spacing: -.02em;
      }

      .cls-2, .cls-3 {
        stroke: #000;
      }

      .cls-6 {
        fill: #bcbec0;
      }

      .cls-3 {
        stroke-width: 5.67px;
      }

      .cls-13 {
        letter-spacing: -.01em;
      }

      .cls-14 {
        letter-spacing: 0em;
      }

      .cls-7 {
        fill: #535889;
      }

      .cls-8 {
        fill: #d16b6b;
      }

      .cls-15 {
        letter-spacing: 0em;
      }

      .cls-16 {
        letter-spacing: -.06em;
      }
    </style>
  </defs>
  <g id="Background">
    <rect class="cls-6" x="2.78" y="3.07" width="150.2" height="535.8"/>
    <rect class="cls-6" x="526.34" y="2.84" width="240.94" height="476.17"/>
    <rect class="cls-6" x="442.18" y="3.07" width="124.7" height="388.4"/>
    <rect class="cls-6" x="362.78" y="3.07" width="85" height="294.8"/>
    <rect class="cls-6" x="147.38" y="5.87" width="221.1" height="243.8"/>
  </g>
  <g id="Rooms">
    <rect id="_Path_" data-name="&amp;lt;Path&amp;gt;" class="cls-8" x="538.53" y="8.51" width="51.02" height="226.77"/>
    <rect class="cls-8" x="479" y="8.51" width="48.19" height="226.77"/>
    <rect class="cls-8" x="419.47" y="8.51" width="48.19" height="226.77"/>
    <rect class="cls-8" x="600.89" y="8.51" width="48.19" height="226.77"/>
    <rect class="cls-8" x="660.42" y="8.51" width="45.35" height="226.77"/>
    <rect class="cls-8" x="717.11" y="8.51" width="45.35" height="226.77"/>
    <rect class="cls-8" x="691.6" y="303.31" width="70.87" height="82.2"/>
    <rect class="cls-8" x="569.71" y="303.31" width="76.54" height="79.37"/>
    <rect class="cls-8" x="291.91" y="175.75" width="31.18" height="65.2"/>
    <rect class="cls-8" x="209.71" y="175.75" width="70.87" height="65.2"/>
    <rect class="cls-8" x="209.71" y="8.51" width="42.52" height="104.88"/>
    <rect class="cls-8" x="263.57" y="8.51" width="45.35" height="104.88"/>
    <rect class="cls-8" x="320.26" y="8.51" width="36.85" height="104.88"/>
    <rect class="cls-8" x="739.79" y="246.62" width="22.68" height="59.53"/>
  </g>
  <g id="Stairs">
    <rect class="cls-5" x="569.73" y="394.03" width="76.5" height="76.5"/>
    <rect class="cls-5" x="334.43" y="175.75" width="22.68" height="65.2"/>
  </g>
  <g id="Service">
    <rect class="cls-7" x="717.13" y="433.63" width="45.3" height="36.9"/>
    <rect class="cls-7" x="702.93" y="396.83" width="59.5" height="25.5"/>
    <rect class="cls-7" x="450.66" y="303.31" width="107.72" height="79.37"/>
    <rect class="cls-7" x="167.19" y="192.76" width="31.18" height="48.19"/>
    <rect class="cls-7" x="530.03" y="379.85" width="28.35" height="90.71"/>
    <rect class="cls-7" x="8.45" y="8.51" width="189.92" height="172.91"/>
    <rect class="cls-7" x="8.45" y="175.75" width="138.9" height="354.33"/>
    <rect class="cls-7" x="99.16" y="127.56" width="56.69" height="113.39"/>
    <rect class="cls-7" x="368.45" y="8.51" width="39.69" height="104.88"/>
  </g>
  <g id="Stroke">
    <line class="cls-3" x1="2.83" y1=".03" x2="2.83" y2="538.53"/>
    <line class="cls-3" x1="5.63" y1="2.83" x2="770.93" y2="2.83"/>
    <line class="cls-3" x1="5.63" y1="535.73" x2="155.83" y2="535.73"/>
    <line class="cls-3" x1="153.03" y1="532.93" x2="153.03" y2="243.73"/>
    <line class="cls-3" x1="768.13" y1="5.63" x2="768.13" y2="479.03"/>
    <line class="cls-3" x1="155.83" y1="246.63" x2="365.63" y2="246.63"/>
    <line class="cls-3" x1="362.83" y1="249.43" x2="362.83" y2="300.43"/>
    <line class="cls-3" x1="365.63" y1="297.63" x2="447.83" y2="297.63"/>
    <line class="cls-3" x1="444.93" y1="300.43" x2="444.93" y2="391.13"/>
    <line class="cls-3" x1="447.83" y1="388.33" x2="527.19" y2="388.35"/>
    <line class="cls-3" x1="564.03" y1="391.13" x2="564.03" y2="479.03"/>
    <line class="cls-3" x1="566.83" y1="476.23" x2="765.33" y2="476.23"/>
    <line class="cls-3" x1="765.33" y1="428.03" x2="694.43" y2="428.03"/>
    <line class="cls-3" x1="711.43" y1="430.83" x2="711.43" y2="459.23"/>
    <line class="cls-3" x1="697.23" y1="425.13" x2="697.23" y2="408.13"/>
    <line class="cls-3" x1="561.23" y1="388.33" x2="598.03" y2="388.33"/>
    <line class="cls-3" x1="598.03" y1="388.33" x2="654.73" y2="388.33"/>
    <line class="cls-3" x1="651.93" y1="385.53" x2="651.93" y2="459.23"/>
    <line class="cls-3" x1="447.82" y1="297.64" x2="654.75" y2="297.64"/>
    <line class="cls-3" x1="651.91" y1="300.48" x2="651.91" y2="385.52"/>
    <line class="cls-3" x1="765.3" y1="391.19" x2="683.1" y2="391.19"/>
    <line class="cls-3" x1="685.93" y1="388.35" x2="685.93" y2="294.81"/>
    <line class="cls-3" x1="688.77" y1="297.64" x2="736.95" y2="297.64"/>
    <line class="cls-3" x1="413.8" y1="243.79" x2="413.8" y2="5.67"/>
    <line class="cls-3" x1="416.64" y1="240.95" x2="765.3" y2="240.95"/>
    <line class="cls-3" x1="362.78" y1="243.79" x2="362.78" y2="167.25"/>
    <line class="cls-3" x1="359.95" y1="170.08" x2="201.21" y2="170.08"/>
    <line class="cls-3" x1="410.97" y1="119.06" x2="201.21" y2="119.06"/>
    <line class="cls-3" x1="204.04" y1="172.92" x2="204.04" y2="243.79"/>
    <line class="cls-3" x1="204.04" y1="116.23" x2="204.04" y2="5.67"/>
    <line class="cls-3" x1="161.52" y1="243.79" x2="161.52" y2="184.26"/>
    <line class="cls-3" x1="201.21" y1="187.09" x2="164.36" y2="187.09"/>
    <line class="cls-3" x1="595.22" y1="5.67" x2="595.22" y2="240.95"/>
    <line class="cls-3" x1="532.86" y1="5.67" x2="532.86" y2="238.12"/>
    <line class="cls-3" x1="473.33" y1="5.67" x2="473.33" y2="238.12"/>
    <line class="cls-3" x1="654.75" y1="5.67" x2="654.75" y2="238.12"/>
    <line class="cls-3" x1="711.44" y1="5.67" x2="711.44" y2="238.12"/>
    <line class="cls-3" x1="328.77" y1="172.92" x2="328.77" y2="243.79"/>
    <line class="cls-3" x1="286.25" y1="172.92" x2="286.25" y2="243.79"/>
    <line class="cls-3" x1="564.04" y1="385.52" x2="564.04" y2="300.48"/>
    <line class="cls-3" x1="362.78" y1="116.23" x2="362.78" y2="5.67"/>
    <line class="cls-3" x1="314.59" y1="5.67" x2="314.59" y2="116.23"/>
    <line class="cls-3" x1="257.9" y1="116.23" x2="257.9" y2="5.67"/>
    <line class="cls-3" x1="204.04" y1="167.25" x2="204.04" y2="150.24"/>
    <line class="cls-3" x1="204.04" y1="121.9" x2="204.04" y2="136.07"/>
    <line class="cls-2" x1="561.21" y1="476.23" x2="521.52" y2="476.23"/>
    <line class="cls-2" x1="524.36" y1="473.39" x2="524.36" y2="391.19"/>
    <line class="cls-3" x1="734.12" y1="294.81" x2="734.12" y2="243.79"/>
  </g>
  <g id="RoomNumbers">
    <text class="cls-4" transform="translate(430.81 133.23) scale(.9 1)"><tspan class="cls-12" x="0" y="0">2</tspan><tspan class="cls-15" x="10.37" y="0">1</tspan><tspan x="20.98" y="0">0</tspan></text>
    <text class="cls-4" transform="translate(490.34 133.23) scale(.9 1)"><tspan class="cls-12" x="0" y="0">2</tspan><tspan x="10.37" y="0">11</tspan></text>
    <text class="cls-4" transform="translate(549.87 133.23) scale(.9 1)"><tspan class="cls-12" x="0" y="0">2</tspan><tspan class="cls-9" x="10.37" y="0">1</tspan><tspan x="21.38" y="0">2</tspan></text>
    <text class="cls-4" transform="translate(609.4 133.23) scale(.9 1)"><tspan class="cls-12" x="0" y="0">2</tspan><tspan class="cls-14" x="10.37" y="0">1</tspan><tspan x="21.26" y="0">3</tspan></text>
    <text class="cls-4" transform="translate(666.09 133.23) scale(.9 1)"><tspan class="cls-12" x="0" y="0">2</tspan><tspan class="cls-11" x="10.37" y="0">1</tspan><tspan x="21.07" y="0">4</tspan></text>
    <text class="cls-4" transform="translate(725.62 133.23) scale(.9 1)"><tspan class="cls-12" x="0" y="0">2</tspan><tspan x="10.37" y="0">15</tspan></text>
    <text class="cls-4" transform="translate(592.39 348.67) scale(.9 1)"><tspan class="cls-12" x="0" y="0">2</tspan><tspan class="cls-16" x="10.37" y="0">1</tspan><tspan x="20.07" y="0">7</tspan></text>
    <text class="cls-4" transform="translate(714.28 348.67) scale(.9 1)"><tspan class="cls-12" x="0" y="0">2</tspan><tspan class="cls-13" x="10.37" y="0">1</tspan><tspan x="20.89" y="0">6</tspan></text>
    <text class="cls-4" transform="translate(294.75 215.44) scale(.9 1)"><tspan x="0" y="0">2</tspan><tspan class="cls-10" x="10.79" y="0">0</tspan><tspan x="21.12" y="0">1</tspan></text>
    <text class="cls-4" transform="translate(232.39 215.44) scale(.9 1)"><tspan x="0" y="0">202</tspan></text>
    <text class="cls-4" transform="translate(218.21 70.87) scale(.9 1)"><tspan x="0" y="0">204</tspan></text>
    <text class="cls-4" transform="translate(272.07 70.87) scale(.9 1)"><tspan x="0" y="0">205</tspan></text>
    <text class="cls-4" transform="translate(325.93 70.87) scale(.9 1)"><tspan x="0" y="0">206</tspan></text>
  </g>
  <g id="pathdots">
    <circle class="cls-6" cx="230.97" cy="145.99" r="4.25"/>
    <circle class="cls-6" cx="284.83" cy="145.99" r="4.25"/>
    <circle class="cls-6" cx="318.84" cy="145.99" r="4.25"/>
    <circle class="cls-6" cx="344.36" cy="145.99" r="4.25"/>
    <circle class="cls-6" cx="386.88" cy="145.99" r="4.25"/>
    <circle class="cls-6" cx="389.71" cy="276.38" r="4.25"/>
    <circle class="cls-6" cx="446.4" cy="276.38" r="4.25"/>
    <circle class="cls-6" cx="503.1" cy="276.38" r="4.25"/>
    <circle class="cls-6" cx="562.62" cy="276.38" r="4.25"/>
    <circle class="cls-6" cx="624.99" cy="276.38" r="4.25"/>
    <circle class="cls-6" cx="667.51" cy="335.91" r="4.25"/>
    <circle class="cls-6" cx="667.51" cy="276.38" r="4.25"/>
    <circle class="cls-6" cx="670.34" cy="401.11" r="4.25"/>
    <circle class="cls-6" cx="670.34" cy="463.47" r="4.25"/>
    <circle id="stair-marker" class="cls-6" cx="344.36" cy="171.5" r="4.25"/>
    <circle id="stair-marker" data-name="stair-marker" class="cls-6" cx="650.5" cy="466.3" r="4.25"/>
  </g>
  <g id="Doors">
    <line id="DoorRestaurant" class="cls-1" x1="204.04" y1="136.07" x2="204.04" y2="150.24"/>
    <line id="DoorStairs" class="cls-1" x1="340.1" y1="170.08" x2="351.44" y2="170.08"/>
    <line id="Door201" class="cls-1" x1="300.42" y1="170.08" x2="311.76" y2="170.08"/>
    <line id="Door202" class="cls-1" x1="238.06" y1="170.08" x2="252.23" y2="170.08"/>
    <line id="Door204" class="cls-1" x1="223.88" y1="119.06" x2="238.06" y2="119.06"/>
    <line id="Door205" class="cls-1" x1="277.74" y1="119.06" x2="291.91" y2="119.06"/>
    <line id="Door206" class="cls-1" x1="331.6" y1="119.06" x2="345.77" y2="119.06"/>
    <line id="Door210" class="cls-1" x1="439.32" y1="240.95" x2="453.49" y2="240.95"/>
    <line id="Door211" class="cls-1" x1="496.01" y1="240.95" x2="510.18" y2="240.95"/>
    <line id="Door212" class="cls-1" x1="555.54" y1="240.95" x2="569.71" y2="240.95"/>
    <line id="Door213" class="cls-1" x1="617.9" y1="240.95" x2="632.07" y2="240.95"/>
    <line id="Door214" class="cls-1" x1="677.43" y1="240.95" x2="691.6" y2="240.95"/>
    <line id="Door215" class="cls-1" x1="717.11" y1="240.95" x2="731.29" y2="240.95"/>
    <line id="Door216" class="cls-1" x1="700.1" y1="297.64" x2="714.28" y2="297.64"/>
    <line id="DoorWC" class="cls-1" x1="697.27" y1="394.02" x2="697.27" y2="408.19"/>
    <line id="DoorWC-2" data-name="DoorWC" class="cls-1" x1="711.44" y1="459.22" x2="711.44" y2="473.39"/>
    <line id="DoorStairs-2" data-name="DoorStairs" class="cls-1" x1="651.91" y1="459.22" x2="651.91" y2="473.39"/>
    <line id="Door217" class="cls-1" x1="651.91" y1="331.66" x2="651.91" y2="345.83"/>
    <line id="DoorLibrary" class="cls-1" x1="564.04" y1="447.88" x2="564.04" y2="433.71"/>
  </g>
</svg>
